<?xml version="1.0" standalone="no"?>
<!DOCTYPE svg PUBLIC "-//W3C//DTD SVG 20010904//EN"
 "http://www.w3.org/TR/2001/REC-SVG-20010904/DTD/svg10.dtd">
<svg version="1.0" xmlns="http://www.w3.org/2000/svg"
 width="512.000000pt" height="512.000000pt" viewBox="0 0 512.000000 512.000000"
 preserveAspectRatio="xMidYMid meet">

<g transform="translate(0.000000,512.000000) scale(0.100000,-0.100000)"
fill="#000000" stroke="none">
<path d="M1989 5101 c-31 -10 -78 -33 -103 -51 -54 -39 -140 -160 -218 -307
l-53 -100 -135 -70 c-167 -87 -333 -182 -374 -215 -46 -37 -87 -119 -93 -187
-5 -49 0 -76 30 -167 50 -151 82 -284 111 -459 43 -261 42 -242 3 -258 -48
-20 -103 -72 -135 -126 -24 -41 -27 -59 -30 -151 -4 -103 -3 -106 30 -170 63
-122 145 -160 345 -160 114 0 153 -9 104 -25 -11 -3 -68 -35 -127 -70 -59 -36
-110 -65 -113 -65 -3 1 -76 89 -161 198 -148 187 -155 199 -162 252 -9 77 -40
142 -95 201 -171 183 -462 141 -580 -82 -26 -49 -28 -63 -28 -159 0 -102 1
-107 36 -169 43 -79 108 -136 187 -164 l59 -22 343 -430 c188 -236 347 -436
352 -442 8 -9 -23 -47 -110 -137 -130 -136 -158 -179 -143 -219 11 -29 48 -57
75 -57 11 0 73 56 154 141 145 151 243 237 361 317 l75 50 58 -40 c217 -147
471 -417 552 -588 26 -54 32 -80 34 -152 l4 -88 -54 0 c-52 1 -54 2 -80 45
-101 167 -342 159 -430 -14 -126 -248 192 -485 389 -290 23 22 47 53 53 70 11
26 17 29 57 29 l45 0 -7 -52 c-12 -88 -54 -218 -97 -300 -46 -90 -105 -159
-189 -224 l-58 -44 -268 2 -268 3 -18 70 c-24 95 -23 294 2 435 20 115 17 139
-23 165 -32 21 -81 12 -101 -19 -45 -69 -71 -436 -40 -580 8 -38 13 -72 11
-74 -3 -2 -48 1 -101 6 -219 24 -321 130 -333 344 -7 141 28 291 114 479 45
98 47 116 16 152 -20 23 -84 23 -104 0 -47 -53 -134 -273 -164 -410 -22 -106
-22 -280 0 -358 56 -190 185 -309 379 -349 67 -14 250 -16 1587 -16 1337 0
1520 2 1588 16 194 39 321 157 378 349 23 78 22 251 0 358 -62 288 -235 591
-490 854 -80 83 -106 116 -99 125 6 7 165 206 353 443 l343 430 59 22 c79 28
144 85 187 164 35 61 36 68 36 164 0 87 -3 107 -26 156 -36 75 -96 134 -177
172 -57 27 -78 31 -147 31 -66 0 -91 -5 -142 -28 -114 -52 -196 -163 -211
-286 -7 -53 -14 -65 -162 -252 -85 -109 -158 -197 -161 -198 -3 0 -54 29 -113
65 -59 35 -116 67 -127 70 -49 16 -10 25 104 25 201 0 287 41 348 165 30 62
31 68 27 167 -3 90 -7 109 -30 149 -32 54 -87 106 -135 125 -18 8 -33 18 -33
22 1 55 68 426 97 532 53 197 86 272 178 405 34 50 100 151 146 225 81 131 84
137 84 196 0 49 -5 68 -27 101 -43 65 -73 74 -276 78 -97 2 -229 9 -292 15
-262 24 -278 24 -300 5 -11 -10 -20 -25 -20 -33 0 -12 -12 -14 -72 -9 -119 10
-138 16 -138 43 0 37 -42 60 -132 73 -156 22 -513 82 -758 128 -294 55 -355
60 -431 34z m49 -1140 c118 -98 334 -218 514 -285 119 -44 159 -46 187 -10 19
24 21 40 21 160 l0 133 350 -119 c192 -66 359 -124 370 -130 20 -10 20 -20 20
-465 0 -296 -4 -472 -11 -507 -6 -29 -12 -54 -13 -55 -1 -1 -34 29 -74 66
-180 171 -454 305 -705 346 -117 19 -161 19 -278 -1 -133 -23 -235 -57 -375
-124 -129 -62 -297 -180 -357 -250 -19 -22 -37 -40 -40 -40 -3 0 -11 26 -19
58 -9 42 -13 167 -13 474 l0 418 55 47 c91 78 213 199 265 263 28 33 51 60 53
60 2 0 24 -18 50 -39z m-578 -966 l0 -165 -100 0 c-111 0 -150 11 -190 54 -21
24 -25 39 -28 104 -5 137 37 171 211 172 l107 0 0 -165z m2447 148 c57 -27 75
-65 71 -155 -3 -65 -7 -80 -28 -104 -40 -43 -79 -54 -190 -54 l-100 0 0 165 0
165 106 0 c78 0 115 -4 141 -17z m-3257 -33 c122 -62 145 -225 46 -325 -57
-57 -121 -74 -198 -51 -180 52 -200 291 -33 379 43 23 137 22 185 -3z m4008 1
c165 -85 142 -326 -36 -377 -75 -22 -139 -6 -197 50 -79 76 -86 182 -18 274
52 69 170 94 251 53z m-2988 -809 c50 -60 107 -114 423 -407 l109 -100 13 -90
c7 -49 16 -135 20 -190 l6 -100 -37 45 c-258 307 -662 596 -986 705 -49 16
-88 35 -88 40 0 16 93 109 162 161 32 25 100 70 150 100 l92 54 40 -76 c23
-42 66 -106 96 -142z m2039 146 c120 -74 281 -213 281 -243 0 -5 -39 -24 -87
-40 -198 -67 -447 -210 -648 -372 -98 -79 -264 -243 -338 -333 l-37 -45 0 40
c0 45 27 283 36 321 4 14 95 106 228 228 305 281 350 331 417 469 l22 46 30
-16 c17 -8 60 -33 96 -55z m-155 -806 c465 -410 715 -1011 558 -1342 -30 -63
-112 -150 -142 -150 -11 0 -20 1 -20 3 0 1 7 34 15 72 31 145 5 512 -40 581
-20 31 -69 40 -101 19 -40 -26 -43 -50 -23 -165 25 -141 26 -340 2 -435 l-18
-70 -268 -3 -268 -2 -58 44 c-84 65 -143 134 -189 224 -43 82 -85 212 -97 300
l-7 52 45 0 c40 0 46 -3 57 -29 6 -16 28 -45 47 -65 95 -95 239 -101 337 -15
90 79 112 194 59 300 -89 173 -330 181 -431 14 -26 -44 -28 -44 -81 -45 l-53
0 4 93 c4 78 9 101 36 153 66 130 225 315 396 461 60 51 116 93 125 93 9 0 61
-40 115 -88z m-994 33 c36 0 94 4 129 8 57 8 63 7 57 -9 -12 -32 -28 -480 -21
-616 l6 -138 -171 0 -171 0 6 138 c7 133 -9 585 -21 617 -6 14 1 15 57 8 35
-4 93 -8 129 -8z m-599 -764 c47 -47 34 -117 -27 -146 -43 -20 -77 -11 -110
28 -75 89 55 200 137 118z m1324 7 c39 -34 44 -86 11 -125 -33 -39 -67 -48
-110 -28 -61 29 -74 99 -27 146 37 37 88 39 126 7z m-539 -185 c41 -243 100
-392 205 -522 l49 -61 -440 0 -440 0 49 61 c93 115 155 260 190 444 12 58 21
108 21 111 0 2 81 4 180 4 l179 0 7 -37z"/>
<path d="M1870 3514 c-30 -8 -63 -24 -72 -35 -24 -29 -23 -70 4 -98 19 -21 26
-23 77 -15 73 10 201 10 276 0 52 -7 62 -6 77 10 52 59 20 117 -77 140 -76 18
-214 17 -285 -2z"/>
<path d="M2960 3515 c-92 -22 -123 -82 -72 -139 15 -16 25 -17 77 -10 75 10
203 10 276 0 51 -8 58 -6 77 15 27 28 28 69 5 98 -39 46 -239 66 -363 36z"/>
<path d="M1970 3252 c-27 -27 -30 -37 -30 -92 0 -51 4 -65 25 -85 31 -32 74
-33 103 -2 18 19 22 35 22 94 0 76 -11 95 -62 108 -22 6 -33 1 -58 -23z"/>
<path d="M3080 3273 c-41 -15 -50 -35 -50 -109 0 -62 3 -76 22 -94 30 -27 73
-26 103 5 21 20 25 34 25 85 0 55 -3 65 -29 91 -29 29 -42 33 -71 22z"/>
</g>
</svg>
