<?xml version="1.0" standalone="no"?>
<!DOCTYPE svg PUBLIC "-//W3C//DTD SVG 20010904//EN"
 "http://www.w3.org/TR/2001/REC-SVG-20010904/DTD/svg10.dtd">
<svg version="1.0" xmlns="http://www.w3.org/2000/svg"
 width="512.000000pt" height="512.000000pt" viewBox="0 0 512.000000 512.000000"
 preserveAspectRatio="xMidYMid meet">

<g transform="translate(0.000000,512.000000) scale(0.100000,-0.100000)"
fill="#000000" stroke="none">
<path d="M300 5111 c-95 -31 -169 -95 -208 -180 -59 -129 -18 -289 98 -377
l56 -42 369 -893 c204 -490 370 -896 370 -902 0 -10 -507 -226 -531 -227 -6 0
-17 7 -25 16 -47 57 -179 76 -255 36 -81 -42 -134 -128 -134 -218 0 -87 76
-188 159 -213 122 -36 236 13 287 124 13 27 24 64 24 81 0 32 1 32 193 112
105 44 195 77 198 73 4 -3 48 -106 99 -228 l92 -222 -21 -27 c-12 -15 -21 -35
-21 -45 0 -29 44 -73 75 -74 26 -2 32 -12 112 -205 46 -111 82 -207 81 -212
-2 -6 -76 -41 -165 -78 -89 -37 -182 -79 -206 -93 -61 -36 -114 -98 -151 -176
-30 -63 -31 -71 -31 -196 0 -115 3 -135 22 -171 24 -44 79 -98 112 -109 21 -6
21 -12 21 -311 l0 -305 25 -24 c13 -14 35 -25 48 -25 31 0 77 36 77 61 0 18
10 19 283 19 l283 0 17 -35 c29 -61 104 -56 135 8 l13 27 520 0 c486 0 520 -1
526 -18 27 -75 117 -83 141 -12 l11 30 525 0 c513 0 526 0 526 -19 0 -24 45
-61 74 -61 30 0 63 25 70 55 l6 25 285 0 c250 0 285 -2 285 -15 0 -25 47 -65
75 -65 14 0 37 11 50 25 l25 24 0 306 c0 268 2 305 15 305 9 0 38 21 65 46 69
65 84 114 77 258 -5 128 -21 180 -75 251 -61 81 -115 112 -384 225 l-253 106
-6 1159 c-5 1137 -5 1162 -26 1253 -86 375 -265 657 -552 873 -169 127 -360
213 -579 261 -139 31 -424 31 -565 0 -583 -128 -1004 -553 -1129 -1141 -19
-87 -21 -142 -25 -567 l-5 -472 -24 -10 c-15 -7 -25 -8 -29 -2 -4 6 -172 410
-375 899 l-368 889 5 85 c4 64 2 96 -12 136 -23 69 -99 151 -167 181 -57 24
-165 35 -208 21z m176 -176 c45 -34 64 -74 64 -130 0 -173 -227 -227 -306 -73
-42 80 1 191 86 227 40 17 118 5 156 -24z m2581 24 c386 -43 727 -252 940
-576 88 -134 146 -277 185 -453 21 -93 22 -120 25 -1204 l4 -1108 -50 7 c-71
10 -148 -15 -198 -63 l-39 -38 -140 50 c-159 58 -177 69 -204 122 -17 31 -20
59 -20 154 l0 115 35 24 c57 38 184 170 237 246 89 125 154 277 190 440 9 44
13 162 13 430 l0 370 -32 68 c-67 141 -240 252 -295 190 -43 -50 -27 -103 42
-138 63 -32 106 -84 125 -150 13 -44 16 -94 13 -253 -3 -220 -10 -244 -78
-289 -31 -22 -42 -23 -237 -23 -199 0 -204 0 -241 25 -75 49 -137 57 -440 53
-317 -5 -337 -9 -421 -84 -81 -72 -129 -197 -101 -263 19 -47 51 -54 227 -49
176 4 226 18 290 80 l32 31 37 -33 c73 -64 111 -74 290 -78 216 -5 247 11 230
118 l-6 40 138 0 c125 0 196 10 253 34 16 7 16 2 4 -61 -36 -182 -130 -359
-263 -491 -77 -77 -155 -133 -259 -186 -227 -114 -504 -127 -757 -35 -247 89
-476 317 -564 563 -29 78 -57 194 -50 201 2 2 28 -3 58 -11 81 -21 117 -18
146 11 21 21 24 31 19 58 -10 46 -33 65 -93 77 -64 12 -95 31 -124 79 -22 34
-23 45 -23 251 0 246 5 271 69 335 31 30 71 54 156 89 243 102 476 231 648
358 l93 69 57 -44 c142 -110 428 -277 472 -277 54 0 92 80 58 121 -7 9 -65 44
-128 79 -142 78 -266 161 -361 240 -87 73 -108 76 -170 22 -169 -148 -433
-303 -720 -422 -182 -76 -239 -124 -297 -248 l-27 -57 0 -365 c0 -390 4 -433
53 -580 65 -198 205 -401 355 -515 l66 -50 0 -114 c1 -189 -16 -208 -261 -291
l-97 -33 -36 31 c-61 54 -93 66 -172 67 l-73 0 0 1091 c0 1182 -1 1166 55
1349 13 44 46 125 73 180 240 489 755 774 1289 714z m-2465 -451 c9 -24 167
-407 352 -852 185 -445 336 -813 336 -816 0 -4 -33 -21 -72 -38 -52 -21 -75
-27 -80 -19 -6 12 -530 1274 -648 1564 l-58 141 31 6 c18 4 50 17 72 30 22 13
42 25 45 25 3 1 13 -18 22 -41z m2218 -1716 c0 -12 -30 -37 -67 -56 -34 -17
-193 -23 -193 -8 0 12 30 38 65 56 32 17 195 23 195 8z m413 -6 c18 -7 43 -25
56 -40 l24 -26 -82 0 c-51 0 -95 6 -118 15 -40 17 -73 43 -73 57 0 14 158 9
193 -6z m-1745 -333 l-3 -96 -64 154 c-35 85 -64 160 -65 168 -1 8 26 25 64
41 l65 26 3 -98 c1 -55 1 -142 0 -195z m-189 -44 c50 -121 92 -225 94 -230 2
-11 -130 -72 -146 -66 -5 1 -51 104 -102 227 l-93 225 52 23 c28 12 60 26 71
31 11 5 23 10 26 10 3 1 47 -98 98 -220z m-951 -25 c47 -54 10 -134 -63 -134
-88 0 -114 117 -35 157 33 17 70 8 98 -23z m1142 -589 c0 -135 -3 -245 -7
-245 -7 0 -159 358 -170 398 -3 13 16 25 84 54 48 20 89 37 91 37 1 1 2 -109
2 -244z m1101 20 c91 -33 206 -49 344 -49 178 1 284 23 468 99 15 6 17 -1 17
-82 0 -80 3 -96 31 -151 19 -38 50 -78 80 -105 l50 -44 -68 -25 c-191 -71
-358 -100 -578 -100 -220 -1 -384 26 -574 95 l-83 30 47 40 c84 71 125 167
125 289 l0 58 53 -21 c28 -12 68 -27 88 -34z m-383 -465 c453 -205 1024 -199
1482 16 93 44 96 44 135 30 22 -7 39 -18 38 -22 -1 -5 -15 -39 -32 -75 l-30
-66 -123 -50 c-268 -109 -414 -136 -749 -139 -141 -1 -265 -4 -276 -8 -11 -4
-25 -18 -32 -32 -9 -20 -17 -25 -34 -21 -12 3 -47 10 -78 17 -54 10 -57 13
-63 44 -9 45 -17 51 -127 87 -52 17 -131 48 -177 69 -82 37 -83 38 -113 100
-16 34 -29 67 -29 74 0 15 57 36 80 31 8 -2 66 -26 128 -55z"/>
<path d="M2314 3577 c-35 -31 -38 -82 -5 -109 33 -26 228 -27 260 0 33 26 31
79 -3 109 -24 21 -37 23 -126 23 -89 0 -102 -2 -126 -23z"/>
<path d="M3276 3579 c-33 -26 -36 -79 -6 -109 18 -18 33 -20 134 -20 112 0
115 1 135 26 28 36 26 60 -8 95 -29 28 -32 29 -129 29 -85 0 -103 -3 -126 -21z"/>
<path d="M2393 3336 c-26 -22 -28 -30 -28 -94 0 -85 18 -112 75 -112 57 0 75
27 75 112 0 64 -2 72 -28 94 -35 30 -59 30 -94 0z"/>
<path d="M3356 3339 c-24 -19 -26 -26 -26 -95 0 -87 17 -114 74 -114 52 0 76
36 76 112 0 52 -3 63 -29 89 -35 34 -59 36 -95 8z"/>
<path d="M2709 2451 c-16 -16 -29 -36 -29 -45 0 -28 22 -64 47 -75 33 -15 354
-15 387 0 55 26 55 112 0 138 -16 7 -91 11 -200 11 l-176 0 -29 -29z"/>
</g>
</svg>
