<?xml version="1.0" standalone="no"?>
<!DOCTYPE svg PUBLIC "-//W3C//DTD SVG 20010904//EN"
 "http://www.w3.org/TR/2001/REC-SVG-20010904/DTD/svg10.dtd">
<svg version="1.0" xmlns="http://www.w3.org/2000/svg"
 width="512.000000pt" height="512.000000pt" viewBox="0 0 512.000000 512.000000"
 preserveAspectRatio="xMidYMid meet">

<g transform="translate(0.000000,512.000000) scale(0.100000,-0.100000)"
fill="#000000" stroke="none">
<path d="M1880 5105 c-25 -8 -61 -28 -81 -44 -51 -42 -299 -439 -299 -478 0
-63 79 -95 123 -50 13 12 71 100 131 195 88 141 111 171 121 160 7 -7 108
-164 224 -349 l211 -336 -39 -84 c-22 -46 -42 -95 -46 -109 -3 -14 -19 -33
-35 -42 -15 -9 -54 -54 -84 -99 l-56 -84 0 280 c0 301 -3 319 -52 342 -32 16
-80 1 -97 -30 -7 -15 -12 -116 -14 -307 l-2 -284 -44 67 c-60 92 -107 132
-170 146 -29 6 -124 11 -211 11 l-159 0 79 127 c49 78 80 137 80 154 0 34 -41
69 -80 69 -36 0 -53 -21 -170 -208 l-95 -152 -173 0 c-220 0 -264 -16 -313
-113 -19 -35 -20 -57 -17 -340 3 -298 3 -302 26 -335 35 -48 86 -83 132 -89
l40 -6 0 -78 c0 -87 7 -79 -84 -94 -99 -16 -222 -113 -271 -212 -76 -157 -51
-324 69 -452 89 -93 230 -144 345 -123 28 5 53 7 55 3 2 -3 11 -31 21 -61 48
-150 170 -338 288 -445 89 -81 226 -169 323 -207 l84 -33 0 -66 0 -67 -222 -5
c-181 -4 -238 -8 -303 -25 -299 -77 -548 -276 -683 -547 -82 -164 -112 -306
-112 -526 0 -125 1 -131 25 -154 30 -31 69 -32 99 -2 21 21 23 34 29 182 7
193 29 292 92 420 89 183 222 317 402 407 57 28 104 50 106 47 2 -2 15 -52 29
-110 79 -327 271 -605 541 -788 118 -79 169 -101 234 -101 32 0 99 -12 148
-25 108 -31 258 -55 338 -55 48 0 62 4 82 25 32 31 33 75 2 102 -17 16 -47 22
-143 31 -267 26 -496 129 -685 309 -164 157 -262 325 -319 547 -31 124 -37
116 84 116 l105 0 6 -48 c11 -84 27 -132 65 -191 44 -67 94 -111 170 -149 54
-26 59 -27 235 -27 l180 0 67 33 c127 62 212 185 226 326 l5 59 131 -6 c262
-12 435 -82 609 -247 119 -112 195 -236 243 -397 21 -72 27 -115 30 -233 3
-80 7 -160 10 -178 10 -65 77 -93 123 -51 23 22 23 23 18 213 -5 221 -20 291
-93 445 l-45 95 66 66 c55 55 72 67 101 68 18 1 46 8 61 16 49 26 571 557 588
598 30 75 13 129 -70 217 l-64 67 79 79 79 78 85 -18 c47 -9 96 -15 108 -12
13 4 83 66 156 140 109 111 132 139 132 163 0 41 -24 71 -63 79 -47 10 -50 14
-33 41 48 73 -38 150 -111 99 -19 -14 -21 -13 -27 17 -10 48 -32 76 -68 83
-48 11 -50 13 -32 47 28 54 -2 108 -60 108 -18 0 -41 -6 -51 -14 -18 -13 -20
-10 -35 33 -17 51 -54 77 -93 65 -27 -8 -263 -239 -283 -276 -13 -24 -12 -38
6 -115 l19 -88 -78 -79 -79 -79 -44 36 c-69 56 -145 66 -215 28 -33 -17 -72
-73 -79 -112 -5 -27 -42 -69 -175 -205 -93 -94 -169 -178 -169 -188 0 -28 28
-74 51 -81 40 -13 75 8 177 108 l104 102 -4 -307 -3 -308 -96 -96 -96 -96 -79
55 c-91 63 -152 95 -244 127 -36 13 -67 25 -69 27 -2 1 35 43 82 93 75 77 87
94 87 124 0 25 -7 40 -26 55 -51 40 -67 31 -209 -109 l-131 -130 -182 0 -182
0 0 69 0 69 38 13 c120 39 265 131 379 242 126 122 219 269 273 429 22 65 24
67 49 61 50 -14 164 -6 221 16 302 116 354 520 90 704 -52 36 -111 58 -193 72
l-38 6 3 76 3 76 47 12 c59 15 110 53 134 102 17 34 19 67 22 322 l3 284 -26
52 c-35 72 -86 107 -170 114 l-63 6 48 64 c106 140 187 339 197 482 5 66 3 82
-16 115 -12 22 -38 51 -58 64 -111 76 -441 -33 -661 -218 -29 -24 -55 -43 -56
-41 -2 2 -79 123 -171 269 -177 281 -206 320 -270 352 -51 26 -146 32 -205 13z
m-205 -1287 c14 -18 62 -89 108 -158 93 -141 119 -165 181 -165 71 0 92 19
199 180 54 82 106 156 115 163 25 19 851 17 878 -2 18 -14 19 -29 19 -274 0
-205 -3 -262 -14 -275 -12 -15 -42 -17 -242 -17 -247 0 -270 -4 -290 -51 l-11
-29 -94 0 c-78 0 -94 3 -94 15 0 9 -11 27 -25 40 l-24 25 -799 0 c-607 0 -801
3 -810 12 -9 9 -12 84 -12 274 0 225 2 265 16 278 14 14 68 16 444 16 l429 0
26 -32z m349 -965 c66 -59 135 -91 227 -103 41 -5 204 -10 363 -10 l289 0 -6
-212 c-6 -233 -21 -318 -77 -449 -59 -140 -170 -282 -293 -375 -75 -57 -237
-135 -332 -160 -108 -29 -362 -27 -470 4 -300 85 -539 310 -634 597 -42 128
-51 195 -51 408 l0 187 288 0 c158 0 321 5 362 10 91 12 180 53 235 109 21 23
41 41 43 41 2 0 27 -21 56 -47z m-1164 -75 l30 -22 0 -217 c0 -139 -4 -220
-10 -224 -6 -4 -38 -6 -71 -6 -112 0 -204 70 -235 180 -26 86 2 186 68 249 66
61 165 80 218 40z m2365 3 c154 -70 193 -279 74 -399 -54 -54 -107 -74 -189
-70 l-64 3 3 220 c2 208 4 221 23 243 27 28 95 30 153 3z m940 -597 c7 -3 17
-29 23 -57 l11 -52 -80 -80 -79 -80 -65 65 -65 64 77 79 78 78 44 -6 c24 -4
49 -9 56 -11z m-270 -864 c-159 -160 -267 -260 -279 -260 -19 0 -19 11 -13
512 5 395 10 514 19 520 9 5 97 -76 273 -252 l260 -260 -260 -260z m-1985 45
c47 -3 118 -2 158 3 l72 8 0 -89 c0 -126 20 -156 104 -157 l48 0 -6 -47 c-14
-101 -86 -188 -174 -213 -20 -5 -89 -10 -152 -10 -100 0 -122 3 -166 24 -85
39 -144 127 -144 215 0 30 1 31 45 31 35 0 52 6 70 25 23 22 25 31 25 125 0
92 2 101 18 96 9 -2 55 -7 102 -11z"/>
<path d="M1503 2600 c-44 -18 -57 -86 -23 -120 27 -27 83 -27 110 2 54 58 -13
149 -87 118z"/>
<path d="M2348 2580 c-24 -25 -29 -36 -23 -58 10 -43 34 -62 75 -62 41 0 65
19 75 62 6 22 1 33 -23 58 -17 16 -40 30 -52 30 -12 0 -35 -14 -52 -30z"/>
<path d="M1703 2300 c-12 -5 -29 -20 -39 -34 -36 -57 13 -194 97 -270 162
-146 422 -82 500 124 39 102 17 183 -50 183 -43 0 -71 -30 -82 -89 -16 -87
-79 -144 -158 -144 -87 0 -153 58 -167 146 -10 70 -51 104 -101 84z"/>
</g>
</svg>
