<?xml version="1.0" standalone="no"?>
<!DOCTYPE svg PUBLIC "-//W3C//DTD SVG 20010904//EN"
 "http://www.w3.org/TR/2001/REC-SVG-20010904/DTD/svg10.dtd">
<svg version="1.0" xmlns="http://www.w3.org/2000/svg"
 width="512.000000pt" height="512.000000pt" viewBox="0 0 512.000000 512.000000"
 preserveAspectRatio="xMidYMid meet">

<g transform="translate(0.000000,512.000000) scale(0.100000,-0.100000)"
fill="#000000" stroke="none">
<path d="M2095 5106 c-96 -30 -158 -79 -222 -176 -55 -82 -64 -106 -52 -137 5
-15 15 -31 21 -34 7 -4 -9 -39 -41 -93 -46 -76 -56 -86 -79 -84 -56 3 -68 -9
-140 -145 -242 -451 -378 -846 -395 -1146 l-2 -43 -119 -35 c-184 -53 -354
-119 -517 -200 -126 -62 -153 -79 -175 -112 -50 -76 -51 -165 -3 -232 10 -15
81 -71 156 -125 260 -184 625 -465 820 -630 l62 -52 -82 -63 c-368 -284 -652
-702 -733 -1076 -23 -107 -23 -280 0 -358 41 -138 128 -249 239 -303 132 -65
61 -62 1727 -62 1667 0 1595 -3 1728 62 73 36 167 130 200 202 76 161 72 393
-10 626 -59 165 -209 434 -258 460 -29 16 -87 4 -100 -20 -20 -38 -10 -75 46
-160 105 -160 187 -357 215 -515 14 -82 7 -225 -14 -283 -22 -64 -64 -118
-115 -152 -78 -51 -127 -61 -353 -67 l-207 -6 -40 86 c-128 274 -401 576 -673
743 l-59 37 0 62 0 62 133 129 c135 131 390 364 485 442 l52 44 37 -23 c47
-29 139 -105 226 -186 59 -55 72 -63 106 -63 30 0 42 5 55 25 33 50 22 76 -61
156 -43 41 -115 103 -160 138 l-82 63 87 72 c249 206 646 510 845 646 92 63
122 98 136 160 12 56 2 108 -33 161 -47 70 -388 224 -692 312 l-119 35 -7 88
c-7 103 -35 239 -76 375 l-28 96 55 18 c256 80 403 271 470 605 33 172 43 263
31 296 -25 65 -90 101 -150 84 -17 -5 -59 -32 -93 -61 -73 -62 -153 -101 -218
-107 -98 -9 -124 11 -254 192 -51 72 -113 150 -137 173 -48 47 -122 87 -188
102 -70 16 -1194 13 -1245 -3z m1448 -1013 c146 -311 225 -582 234 -800 l6
-122 -24 -5 c-13 -3 -103 -22 -199 -42 -96 -20 -198 -44 -227 -54 -151 -53
-269 -200 -293 -365 -5 -38 -10 -210 -10 -382 l0 -312 -45 -31 c-49 -34 -143
-80 -162 -80 -10 0 -13 48 -13 209 0 215 -7 263 -40 281 -27 14 -63 12 -86 -4
-18 -13 -19 -32 -24 -268 l-5 -253 -95 0 -95 0 -5 253 c-5 236 -6 255 -24 268
-23 16 -59 18 -86 4 -33 -18 -40 -66 -40 -281 0 -161 -3 -209 -12 -209 -20 0
-114 46 -163 80 l-45 31 0 312 c0 350 -8 424 -50 515 -38 80 -134 179 -211
215 -33 15 -141 44 -268 71 -117 24 -215 47 -218 50 -13 12 -2 193 18 294 11
59 44 179 74 267 46 139 78 217 167 413 l19 42 938 0 938 0 46 -97z m-2333
-1045 c54 -213 245 -557 447 -808 146 -181 331 -355 444 -419 47 -26 48 -27
138 -231 49 -113 93 -213 97 -223 5 -13 -3 -28 -27 -53 l-33 -34 -96 93 c-398
392 -1093 966 -1571 1300 -111 77 -122 88 -117 119 6 43 301 179 563 260 66
20 125 37 132 37 7 1 17 -18 23 -41z m2920 -18 c152 -50 306 -115 425 -178 52
-27 71 -43 73 -60 5 -31 -6 -42 -117 -119 -466 -325 -1053 -808 -1512 -1244
l-156 -148 -33 34 c-23 24 -31 39 -26 52 4 10 48 111 98 224 80 183 94 208
122 222 101 48 311 243 459 427 203 252 393 595 447 808 11 42 12 43 43 36 18
-3 97 -28 177 -54z m-2408 -1443 c101 -90 249 -228 331 -306 l147 -143 0 -63
0 -62 -59 -37 c-272 -168 -544 -467 -672 -741 l-40 -85 -167 0 c-189 0 -275
11 -347 44 -74 34 -111 70 -147 144 -33 66 -33 68 -32 207 1 122 4 151 28 230
74 244 240 510 456 725 95 96 285 250 307 250 6 0 94 -74 195 -163z m948 -356
c55 -32 100 -112 100 -176 0 -59 -42 -136 -92 -171 -37 -26 -50 -29 -118 -29
-66 0 -82 4 -117 27 -49 33 -93 114 -93 172 0 62 41 140 90 172 73 49 153 51
230 5z"/>
<path d="M1794 3646 c-120 -29 -183 -96 -170 -179 22 -138 134 -239 297 -267
111 -19 237 13 323 84 86 70 129 206 87 273 -24 38 -94 76 -169 92 -69 15
-303 13 -368 -3z"/>
<path d="M2945 3646 c-127 -31 -180 -85 -171 -173 12 -132 119 -236 277 -269
210 -44 415 77 445 263 13 84 -51 150 -175 179 -70 17 -308 17 -376 0z"/>
</g>
</svg>
