<?xml version="1.0" standalone="no"?>
<!DOCTYPE svg PUBLIC "-//W3C//DTD SVG 20010904//EN"
 "http://www.w3.org/TR/2001/REC-SVG-20010904/DTD/svg10.dtd">
<svg version="1.0" xmlns="http://www.w3.org/2000/svg"
 width="512.000000pt" height="512.000000pt" viewBox="0 0 512.000000 512.000000"
 preserveAspectRatio="xMidYMid meet">

<g transform="translate(0.000000,512.000000) scale(0.100000,-0.100000)"
fill="#000000" stroke="none">
<path d="M824 5101 c-72 -33 -124 -129 -110 -203 11 -60 53 -108 308 -348 167
-158 255 -248 268 -276 26 -52 25 -111 -2 -250 -25 -126 -20 -156 29 -175 54
-20 91 13 109 96 3 17 8 38 11 49 13 47 495 225 783 290 129 29 340 66 374 66
25 0 146 -107 266 -235 l75 -80 -90 -8 c-512 -45 -971 -175 -1372 -387 -62
-33 -114 -60 -116 -60 -1 0 -2 18 -2 41 0 101 -129 107 -150 7 -4 -18 -13 -63
-22 -100 l-14 -67 -87 -62 c-222 -159 -428 -344 -463 -417 -32 -65 -32 -159 0
-224 27 -57 98 -123 149 -138 21 -6 43 -13 51 -16 9 -3 2 -17 -24 -45 -20 -23
-51 -71 -68 -108 -26 -55 -32 -81 -35 -157 -5 -109 11 -170 68 -255 36 -55 36
-57 20 -80 -47 -65 -56 -191 -19 -267 13 -25 53 -77 89 -116 37 -39 74 -84 82
-101 43 -85 29 -165 -44 -255 -76 -95 -101 -158 -102 -255 -1 -144 46 -229
194 -348 172 -138 362 -205 608 -214 l144 -6 -6 -31 c-3 -17 -9 -95 -12 -173
l-7 -141 26 -26 26 -26 801 0 801 0 26 26 26 26 -7 141 c-3 78 -9 156 -12 173
l-6 31 139 5 c154 6 275 30 305 60 28 28 21 85 -13 111 -26 19 -29 19 -100 2
-84 -20 -389 -34 -389 -18 0 5 -18 39 -40 76 -22 36 -40 75 -40 87 0 32 -28
92 -57 122 -15 15 -25 30 -22 32 2 2 36 19 74 39 348 174 639 506 756 863 l24
72 48 6 c27 4 67 14 89 23 50 20 60 11 66 -60 l4 -54 -77 -84 c-107 -115 -139
-184 -139 -299 -1 -75 3 -93 30 -151 18 -37 47 -84 67 -105 51 -58 70 -102 71
-164 1 -83 -30 -136 -125 -216 -89 -74 -102 -101 -72 -142 28 -37 74 -41 121
-9 117 78 192 174 219 282 14 58 15 78 5 137 -15 83 -28 111 -97 203 -59 77
-79 136 -69 193 10 57 31 91 104 168 86 91 110 140 110 226 0 69 -12 118 -41
158 -16 24 -16 26 3 50 12 14 35 54 52 90 29 61 31 73 31 176 0 107 -1 112
-38 187 -29 58 -53 90 -100 132 -57 49 -66 63 -86 128 -79 243 -216 474 -406
682 l-82 90 36 26 c20 14 49 49 64 77 90 166 -4 356 -194 392 -74 14 -348 40
-424 40 l-61 0 -95 111 c-363 429 -877 748 -1434 889 -313 80 -687 114 -781
71z m376 -152 c401 -43 810 -186 1143 -402 l99 -64 -124 -23 c-235 -43 -523
-129 -753 -225 -69 -28 -90 -33 -96 -23 -19 29 -7 54 43 99 43 37 51 51 51 79
0 24 -7 40 -27 57 -35 30 -54 29 -106 -6 l-44 -29 -210 202 c-116 111 -232
222 -258 246 -49 43 -60 74 -35 99 13 13 130 10 317 -10z m2285 -1094 c72 -9
140 -23 152 -31 79 -50 72 -165 -12 -200 -29 -12 -48 -12 -137 2 -144 21 -505
30 -664 15 -666 -61 -1297 -330 -1778 -757 -120 -107 -145 -124 -184 -124 -69
0 -112 44 -112 113 1 44 15 64 90 133 464 425 1026 706 1640 818 117 21 180
29 395 50 87 9 487 -4 610 -19z m-75 -376 l105 -12 131 -131 c174 -175 280
-333 370 -551 l33 -79 -52 -26 c-37 -18 -56 -35 -71 -64 -18 -36 -18 -45 -7
-148 7 -60 11 -111 9 -113 -8 -7 -234 25 -315 45 -382 95 -703 311 -944 635
-68 92 -71 95 -109 95 -39 0 -42 -3 -110 -95 -168 -228 -382 -406 -623 -520
-169 -80 -385 -139 -551 -152 l-89 -6 6 39 c4 21 10 75 13 119 6 73 4 83 -18
115 -13 19 -43 44 -67 56 l-43 21 74 65 c474 413 1066 662 1708 718 127 11
406 5 550 -11z m-824 -586 c36 -56 241 -257 329 -323 284 -212 579 -325 959
-365 l59 -7 -7 -66 c-30 -298 -162 -581 -374 -803 -114 -120 -231 -207 -377
-279 -196 -97 -344 -136 -555 -146 -618 -29 -1179 364 -1370 961 -29 92 -70
318 -60 329 3 2 50 9 105 16 416 48 773 215 1064 496 66 63 137 137 157 164
21 28 41 50 45 50 4 0 15 -12 25 -27z m-1538 -405 c-5 -29 -9 -125 -9 -213 0
-88 4 -184 9 -212 11 -62 6 -64 -63 -32 -58 27 -110 87 -131 152 -21 64 -15
166 14 223 33 64 121 132 173 134 14 0 15 -7 7 -52z m3075 37 c91 -38 147
-120 155 -226 8 -119 -47 -223 -143 -268 -69 -33 -73 -30 -63 37 12 75 12 352
0 420 -10 59 -7 61 51 37z m-3176 -646 c15 -6 54 -16 86 -23 l59 -12 37 -100
c81 -212 193 -387 351 -544 122 -121 227 -199 366 -272 55 -28 100 -52 102
-54 2 -1 -9 -14 -23 -28 -31 -31 -55 -84 -55 -121 0 -14 -18 -56 -40 -92 -22
-37 -40 -71 -40 -76 0 -16 -295 -2 -379 18 -222 52 -443 209 -469 332 -16 76
8 162 57 207 38 35 80 111 97 176 35 136 -7 261 -127 385 -78 80 -94 124 -69
185 14 35 11 33 47 19z m1218 -1186 c74 -150 286 -323 395 -323 109 0 321 173
395 323 21 42 42 77 46 77 26 0 89 -35 94 -51 10 -29 -4 -44 -170 -190 -82
-72 -154 -138 -158 -146 -5 -8 -12 -35 -16 -61 -7 -50 -23 -66 -136 -127 l-55
-29 -55 29 c-113 61 -129 77 -136 127 -4 26 -11 53 -16 61 -4 8 -75 74 -158
146 -166 146 -180 161 -170 190 5 17 63 49 91 50 6 1 28 -34 49 -76z m395 62
c74 0 163 3 198 7 l63 8 -23 -41 c-33 -60 -119 -142 -183 -175 l-55 -29 -55
29 c-64 33 -150 115 -183 175 l-23 41 63 -8 c35 -4 124 -7 198 -7z m635 -272
c35 -77 53 -153 61 -251 l7 -82 -213 0 -213 0 22 24 c12 13 31 50 41 82 16 55
26 66 141 171 68 62 125 112 127 112 1 1 13 -24 27 -56z m-1101 -70 c101 -91
110 -102 127 -157 9 -32 28 -69 40 -82 l22 -24 -213 0 -213 0 7 81 c9 96 28
175 61 247 29 64 21 67 169 -65z"/>
<path d="M1885 2195 c-23 -22 -25 -32 -25 -113 0 -80 2 -91 23 -110 33 -31 80
-29 106 4 18 22 21 41 21 111 0 76 -2 86 -25 108 -13 14 -36 25 -50 25 -14 0
-37 -11 -50 -25z"/>
<path d="M3135 2195 c-23 -22 -25 -32 -25 -108 0 -70 3 -89 21 -111 27 -34 77
-36 107 -3 19 20 22 35 22 111 0 79 -2 89 -25 111 -13 14 -36 25 -50 25 -14 0
-37 -11 -50 -25z"/>
<path d="M2345 2085 c-14 -13 -25 -36 -25 -50 0 -36 61 -98 123 -126 108 -47
247 -20 322 62 42 46 45 80 10 114 -32 33 -64 31 -110 -5 -48 -38 -95 -51
-139 -39 -18 5 -51 23 -71 39 -46 36 -78 38 -110 5z"/>
<path d="M4485 3671 c-51 -23 -68 -42 -101 -115 -23 -50 -32 -60 -73 -78 -128
-55 -173 -146 -118 -243 17 -31 38 -48 93 -75 68 -34 72 -38 104 -103 38 -79
74 -108 140 -115 84 -8 144 41 189 153 9 23 29 38 84 65 57 28 76 43 94 75 55
97 10 188 -118 243 -41 18 -50 28 -73 78 -15 32 -35 67 -44 78 -20 23 -89 56
-117 56 -11 0 -38 -9 -60 -19z m101 -220 c23 -62 38 -77 93 -96 25 -9 57 -22
71 -30 l25 -14 -55 -24 c-30 -13 -66 -28 -80 -34 -18 -7 -33 -30 -55 -84 -17
-41 -35 -74 -40 -73 -6 0 -23 34 -40 74 l-30 73 -69 28 c-38 15 -73 32 -78 37
-5 5 12 18 44 31 107 43 99 36 143 136 25 56 27 59 40 41 8 -11 22 -40 31 -65z"/>
<path d="M525 836 c-43 -18 -88 -73 -116 -141 -22 -54 -27 -59 -94 -92 -112
-56 -145 -96 -145 -178 0 -81 33 -122 145 -178 68 -34 71 -37 98 -101 34 -76
89 -132 141 -142 91 -17 160 29 212 141 31 68 35 72 94 99 110 51 150 99 150
181 0 82 -40 130 -150 181 -58 27 -63 32 -91 94 -17 36 -42 78 -57 94 -50 53
-124 70 -187 42z m98 -183 c14 -27 30 -64 36 -84 14 -45 34 -63 86 -79 64 -20
115 -49 115 -65 0 -16 -51 -45 -115 -65 -52 -16 -72 -34 -86 -79 -18 -54 -58
-131 -69 -131 -11 0 -51 77 -69 131 -14 45 -34 63 -86 79 -64 20 -115 49 -115
65 0 16 51 45 115 65 52 16 72 34 86 79 18 54 58 131 69 131 5 0 20 -21 33
-47z"/>
</g>
</svg>
