<?xml version="1.0" standalone="no"?>
<!DOCTYPE svg PUBLIC "-//W3C//DTD SVG 20010904//EN"
 "http://www.w3.org/TR/2001/REC-SVG-20010904/DTD/svg10.dtd">
<svg version="1.0" xmlns="http://www.w3.org/2000/svg"
 width="512.000000pt" height="512.000000pt" viewBox="0 0 512.000000 512.000000"
 preserveAspectRatio="xMidYMid meet">

<g transform="translate(0.000000,512.000000) scale(0.100000,-0.100000)"
fill="#000000" stroke="none">
<path d="M2615 5109 c-172 -23 -379 -93 -531 -180 -100 -58 -124 -80 -124
-119 0 -35 38 -80 68 -80 10 0 45 16 78 36 148 90 300 151 451 181 122 24 368
24 483 0 357 -76 645 -269 836 -562 93 -144 145 -268 187 -450 21 -89 21 -102
24 -1992 l3 -1902 27 -20 c34 -28 69 -26 98 4 l25 24 0 576 c0 316 2 575 5
575 3 0 40 -13 83 -30 142 -55 249 -167 292 -307 18 -60 20 -93 20 -419 0
-283 3 -361 14 -389 25 -59 80 -72 122 -30 l25 25 -3 393 -4 392 -27 81 c-47
139 -141 262 -262 339 -31 20 -102 54 -158 75 l-102 38 -6 1244 c-6 1370 -2
1293 -70 1505 -157 495 -564 862 -1082 974 -107 23 -363 33 -472 18z"/>
<path d="M620 4707 c-121 -35 -202 -103 -257 -215 -36 -71 -38 -81 -37 -166 1
-126 26 -190 108 -271 34 -33 73 -69 86 -80 24 -19 38 -90 273 -1386 l248
-1366 -54 -56 c-69 -70 -118 -151 -154 -252 l-28 -80 -3 -392 -3 -392 25 -26
c14 -14 37 -25 51 -25 28 0 75 40 75 65 0 12 15 15 85 15 l84 0 3 362 c3 355
4 364 26 414 28 63 93 128 158 159 l49 24 5 -501 5 -500 24 -19 c30 -25 62
-24 95 2 l26 20 0 1817 c0 1105 4 1860 10 1928 22 252 112 484 260 679 56 73
65 118 30 150 -36 33 -79 24 -122 -25 -133 -150 -249 -396 -300 -637 l-23
-108 -5 -1239 -5 -1238 -84 -30 c-45 -16 -85 -27 -88 -25 -5 6 -473 2574 -473
2599 0 14 8 18 38 18 20 0 54 5 75 11 22 6 40 9 42 7 2 -2 54 -278 115 -613
103 -568 113 -612 136 -632 28 -26 42 -28 78 -12 55 25 56 16 -69 699 -63 349
-115 644 -115 656 0 11 8 29 19 38 10 9 32 45 47 79 26 55 29 73 29 162 0 93
-2 105 -33 167 -42 86 -129 168 -209 198 -71 27 -182 35 -243 17z m166 -152
c137 -41 210 -193 154 -323 -90 -210 -390 -196 -455 22 -19 62 -19 80 0 143
21 69 86 137 152 157 62 19 89 19 149 1z"/>
<path d="M2702 4167 c-140 -134 -306 -243 -518 -343 -66 -31 -139 -65 -163
-76 -73 -35 -166 -131 -206 -212 -49 -99 -55 -146 -55 -406 l0 -228 -34 -51
c-46 -67 -50 -109 -32 -269 40 -338 139 -669 293 -975 l54 -108 -141 -715
c-133 -679 -140 -716 -125 -744 29 -56 104 -48 133 13 7 15 56 244 108 509 52
266 97 489 99 496 3 8 22 -8 48 -40 62 -76 150 -120 249 -123 56 -2 87 -9 133
-31 44 -20 77 -29 123 -30 42 -1 68 -7 80 -18 10 -9 34 -16 53 -16 42 0 54 11
174 173 48 64 92 117 97 117 5 0 31 -11 58 -25 27 -14 62 -25 78 -25 34 0 83
49 170 168 46 64 62 79 66 65 3 -10 57 -283 121 -608 64 -324 121 -601 128
-614 29 -60 108 -65 135 -9 11 24 -3 108 -128 742 l-141 715 54 108 c156 312
253 635 292 973 19 162 15 204 -31 271 l-34 51 0 228 c0 125 -4 252 -10 281
-27 146 -137 282 -280 349 -299 139 -489 256 -638 394 -54 50 -101 86 -113 86
-12 0 -53 -31 -97 -73z m480 -396 c59 -34 158 -84 220 -112 129 -59 178 -91
219 -147 53 -73 59 -104 59 -337 l0 -213 -32 -7 c-86 -18 -178 -97 -178 -152
0 -36 42 -76 79 -76 25 0 41 9 66 36 43 47 89 51 126 11 21 -23 24 -33 21 -92
-4 -89 -27 -242 -58 -381 -77 -342 -261 -744 -466 -1017 l-54 -72 -54 29 c-54
28 -104 36 -127 21 -6 -4 -53 -61 -103 -127 -51 -66 -96 -120 -100 -120 -5 0
-47 52 -95 115 -47 63 -93 121 -102 128 -26 19 -68 14 -127 -15 -46 -22 -57
-24 -70 -14 -26 22 -169 240 -234 356 -181 326 -309 743 -329 1066 l-6 105 28
22 c41 33 80 29 118 -12 18 -19 42 -37 54 -41 36 -10 92 29 93 65 0 13 13 15
73 12 39 -2 73 -5 75 -7 2 -2 -4 -20 -13 -41 -9 -22 -19 -77 -22 -124 -5 -81
-4 -87 20 -115 l25 -30 164 0 c187 0 237 12 307 72 l42 36 27 -26 c72 -67 166
-90 354 -85 130 3 130 3 155 33 24 28 25 34 21 117 -9 147 -67 240 -188 300
-44 22 -53 23 -370 23 -322 0 -325 0 -370 -24 -25 -13 -60 -34 -77 -48 l-33
-24 0 104 0 104 59 -16 c49 -12 67 -13 113 -2 130 29 228 143 228 267 0 20 6
34 16 38 22 8 117 7 130 -2 6 -4 14 -29 17 -57 25 -192 217 -304 390 -227 131
58 197 207 152 343 -24 70 -101 149 -169 172 -95 33 -201 14 -274 -49 -42 -35
-44 -36 -87 -25 -57 14 -151 13 -195 -2 -34 -12 -37 -11 -79 25 -24 21 -55 41
-68 44 -13 4 -23 10 -21 15 2 4 97 80 212 167 l208 160 62 -43 c33 -23 109
-70 168 -104z m-695 -336 c12 -3 34 -20 48 -36 30 -36 34 -106 9 -145 -34 -51
-107 -68 -164 -39 -42 22 -60 53 -60 106 0 56 33 104 83 118 32 9 41 8 84 -4z
m740 -11 c51 -32 72 -110 44 -163 -42 -78 -176 -79 -216 -1 -60 116 62 232
172 164z m-510 -659 c-3 -19 -15 -48 -26 -64 -34 -47 -77 -61 -190 -61 l-101
0 0 26 c0 36 34 88 73 113 27 18 48 21 141 21 l109 0 -6 -35z m410 15 c38 -23
62 -57 73 -105 l8 -35 -105 0 c-118 0 -160 13 -194 61 -11 16 -23 45 -26 64
l-6 35 109 0 c90 0 114 -3 141 -20z"/>
</g>
</svg>
