<?xml version="1.0" standalone="no"?>
<!DOCTYPE svg PUBLIC "-//W3C//DTD SVG 20010904//EN"
 "http://www.w3.org/TR/2001/REC-SVG-20010904/DTD/svg10.dtd">
<svg version="1.0" xmlns="http://www.w3.org/2000/svg"
 width="512.000000pt" height="512.000000pt" viewBox="0 0 512.000000 512.000000"
 preserveAspectRatio="xMidYMid meet">

<g transform="translate(0.000000,512.000000) scale(0.100000,-0.100000)"
fill="#000000" stroke="none">
<path d="M2406 5104 c-296 -66 -638 -348 -901 -744 -229 -344 -362 -706 -410
-1117 -8 -70 -15 -144 -15 -164 0 -36 -1 -36 -49 -43 -27 -4 -81 -22 -119 -42
-251 -125 -316 -457 -132 -667 36 -41 39 -48 30 -73 -6 -16 -11 -60 -11 -99 0
-93 27 -164 91 -240 96 -113 95 -197 -5 -324 -48 -61 -85 -142 -85 -189 -1
-15 -11 -51 -24 -81 -21 -48 -29 -57 -70 -72 -120 -48 -166 -100 -166 -189 0
-89 46 -141 167 -189 40 -15 49 -24 64 -64 48 -121 100 -167 189 -167 90 0
141 46 189 168 12 31 25 48 38 50 15 2 236 -103 262 -125 3 -2 -3 -17 -12 -32
-23 -39 -21 -77 4 -102 l20 -20 -27 -69 c-15 -38 -31 -67 -36 -64 -17 11 -66
-18 -77 -44 -18 -47 -32 -124 -40 -227 -9 -107 -1 -149 29 -165 25 -14 2475
-14 2500 0 30 16 39 60 30 161 -4 52 -6 95 -5 97 2 2 16 -3 33 -12 28 -14 30
-19 36 -97 4 -45 12 -93 17 -107 18 -47 34 -51 190 -52 130 0 149 2 170 19 21
17 24 27 22 84 l-2 64 65 6 c205 16 364 226 324 429 -29 149 -120 250 -272
301 -14 5 -18 18 -18 64 0 32 -7 86 -15 120 -10 44 -12 70 -5 88 15 40 12 151
-5 193 -20 47 -73 130 -150 234 l-60 82 0 71 c0 77 2 81 90 195 19 25 41 65
50 89 17 51 20 176 5 217 -9 23 -6 31 28 68 81 87 124 232 103 348 -15 84 -61
178 -117 238 -54 58 -162 116 -233 126 l-47 6 -12 140 c-27 311 -104 593 -242
881 -50 107 -69 127 -114 127 -36 0 -76 -36 -76 -68 0 -9 27 -73 59 -142 103
-216 174 -453 206 -682 8 -60 15 -113 15 -118 0 -5 -39 22 -87 61 -48 38 -121
92 -163 120 -104 70 -335 181 -460 223 -318 104 -673 124 -1003 56 l-87 -18 4
32 c3 17 8 58 11 91 9 87 42 236 77 343 16 52 27 100 24 107 -3 9 -27 1 -88
-31 -118 -62 -196 -58 -246 13 -30 43 -34 83 -18 179 l16 88 -31 32 -30 31
128 124 c146 141 352 289 402 289 6 0 20 -19 32 -42 12 -24 23 -44 24 -46 2
-2 47 -10 101 -18 l98 -15 72 72 72 71 38 -12 c125 -41 286 -153 450 -315 66
-66 150 -158 185 -205 72 -97 85 -109 117 -110 34 0 58 16 71 49 16 38 5 60
-97 188 -220 276 -498 489 -722 553 -100 29 -270 35 -364 14z m-787 -1003 c23
-48 23 -48 88 -59 73 -12 108 -37 118 -83 8 -37 -17 -90 -61 -129 l-34 -30 6
-78 c6 -73 5 -80 -17 -105 -38 -43 -85 -46 -154 -9 l-57 31 -52 -29 c-53 -30
-99 -38 -125 -21 -13 8 -12 18 2 71 28 100 85 236 160 383 79 155 81 156 126
58z m1101 -582 c121 -11 263 -38 367 -70 l62 -19 -10 -33 c-26 -88 -2 -191 59
-250 15 -14 106 -61 202 -103 255 -110 254 -110 253 -334 0 -179 -12 -275 -55
-450 -22 -95 -28 -137 -23 -174 9 -69 48 -148 96 -191 40 -36 40 -36 23 -63
-39 -60 -138 -174 -206 -237 -66 -60 -254 -195 -272 -195 -4 0 -5 8 -2 18 3 9
10 59 16 110 18 161 -13 324 -80 419 l-29 43 19 42 c11 24 20 64 20 90 0 61
-42 114 -98 123 -75 12 -112 26 -154 62 -93 78 -204 98 -300 55 l-48 -21 -48
21 c-96 43 -208 22 -300 -55 -42 -36 -79 -50 -154 -62 -56 -9 -98 -62 -98
-123 0 -26 9 -66 20 -90 l19 -42 -29 -43 c-67 -95 -99 -259 -81 -420 6 -52 14
-103 17 -112 6 -15 2 -15 -32 3 -64 33 -174 115 -252 187 -61 57 -178 195
-206 242 -4 8 9 27 33 49 48 42 87 121 96 190 5 37 1 76 -19 154 -43 178 -58
294 -59 465 -1 230 -2 229 248 336 93 41 184 86 202 102 65 57 91 163 64 254
l-9 33 71 21 c223 66 450 89 677 68z m-882 -195 c2 -21 -3 -47 -10 -56 -7 -10
-92 -52 -188 -94 -98 -42 -194 -91 -217 -110 -27 -22 -54 -59 -75 -102 l-33
-67 1 -190 c0 -196 13 -306 54 -467 39 -152 22 -211 -78 -266 -81 -44 -88 -70
-38 -153 136 -228 385 -458 623 -576 l73 -36 -61 -36 c-68 -40 -234 -174 -266
-214 -11 -15 -34 -42 -52 -62 l-31 -36 -95 47 -95 46 16 31 c21 39 21 115 0
155 -21 40 -71 78 -142 107 -52 21 -58 27 -79 79 -31 75 -70 125 -115 145
l-37 17 29 34 c81 95 110 242 69 351 -12 32 -35 74 -51 95 -76 99 -84 115 -88
176 -4 57 -3 61 14 53 11 -4 48 -10 85 -13 60 -4 68 -2 97 23 51 42 65 79 58
144 -25 233 -27 257 -16 367 18 196 22 207 106 290 75 74 174 156 255 212 73
49 263 152 274 149 5 -2 11 -21 13 -43z m1541 7 c114 -58 272 -167 381 -264
147 -131 151 -139 170 -349 8 -81 8 -144 0 -218 -23 -223 -23 -213 -3 -250 13
-23 36 -44 67 -59 43 -21 53 -23 94 -13 26 6 55 14 66 18 17 7 18 3 14 -54 -4
-61 -12 -77 -88 -176 -16 -21 -39 -63 -51 -95 -26 -71 -23 -182 8 -252 l21
-47 -48 -6 c-167 -22 -298 -176 -308 -361 -5 -86 14 -175 45 -224 14 -22 14
-25 -3 -39 -20 -15 -166 -85 -168 -80 -1 2 -30 35 -64 74 -66 77 -187 177
-282 235 l-58 36 81 42 c148 77 247 151 378 281 89 88 146 157 197 233 40 59
72 114 72 122 0 34 -25 64 -72 86 -55 26 -81 55 -96 112 -9 31 -6 56 14 140
75 309 83 638 17 758 -42 78 -85 107 -282 193 -104 45 -186 86 -191 97 -17 30
-12 99 7 99 2 0 39 -18 82 -39z m-2322 -456 c-4 -8 -11 -63 -18 -122 -11 -105
-7 -271 10 -375 9 -57 5 -58 -67 -22 -98 49 -155 142 -155 254 0 124 68 221
188 267 41 16 48 15 42 -2z m3083 -13 c91 -43 152 -143 152 -254 0 -110 -57
-205 -153 -254 -72 -36 -78 -34 -68 29 17 105 21 255 10 364 -6 62 -14 120
-18 129 -5 13 -2 15 18 9 13 -4 40 -14 59 -23z m-1646 -667 c27 -19 57 -35 65
-35 9 0 38 16 65 35 74 52 114 49 201 -15 37 -27 92 -57 121 -67 30 -9 54 -19
54 -22 0 -17 -43 -72 -72 -93 -96 -72 -209 -62 -302 25 -51 48 -81 48 -132 0
-93 -87 -206 -97 -302 -25 -29 21 -72 76 -72 93 0 3 24 13 54 22 29 10 72 32
96 50 109 83 146 88 224 32z m-267 -381 c85 -25 185 -15 268 25 l65 32 65 -32
c112 -55 254 -50 359 12 l35 21 20 -33 c34 -56 44 -122 38 -253 -6 -135 -28
-229 -78 -329 -61 -121 -111 -165 -175 -152 -47 8 -65 -5 -110 -81 -51 -87
-92 -119 -154 -119 -62 0 -103 32 -154 119 -45 77 -61 89 -113 80 -30 -4 -45
-1 -73 18 -40 27 -97 116 -128 199 -67 180 -70 429 -7 525 l16 25 35 -20 c19
-11 60 -28 91 -37z m1935 -421 c46 -27 70 -66 75 -120 4 -39 0 -55 -19 -83
-32 -47 -63 -57 -133 -40 -52 12 -58 12 -83 -7 -29 -21 -38 -50 -28 -89 14
-53 136 -84 239 -60 l37 8 0 -44 c0 -43 -1 -45 -38 -56 -20 -6 -63 -27 -94
-45 l-57 -35 -12 30 c-7 17 -43 60 -79 97 -77 76 -106 126 -116 198 -14 107
50 225 141 259 49 17 125 12 167 -13z m-3177 -86 c8 -13 24 -49 35 -81 11 -33
25 -65 31 -72 6 -7 39 -22 75 -34 35 -12 74 -30 86 -41 l23 -19 -23 -19 c-12
-11 -46 -27 -75 -36 -81 -27 -93 -38 -117 -109 -12 -36 -30 -76 -41 -88 l-19
-23 -19 23 c-11 12 -29 52 -41 88 -24 71 -36 82 -117 109 -29 9 -63 25 -75 36
l-23 19 23 19 c12 11 51 29 86 41 36 12 69 27 75 34 6 7 20 39 31 72 22 64 45
104 60 104 5 0 16 -10 25 -23z m2166 -268 c290 -175 490 -488 534 -836 l7 -53
-526 0 -526 0 0 304 0 304 33 13 c39 16 129 99 158 146 13 21 29 33 42 33 38
0 120 46 162 89 21 22 41 41 44 41 3 0 35 -18 72 -41z m-710 -265 l39 -17 0
-304 0 -303 -235 0 -235 0 0 31 c0 61 42 236 81 334 44 112 101 213 172 305
l48 62 46 -45 c25 -25 63 -53 84 -63z m1454 34 c15 -22 14 -23 -27 -37 -27 -9
-64 -35 -99 -71 l-56 -56 -23 43 c-13 24 -21 45 -19 47 11 10 186 95 196 95 6
1 19 -9 28 -21z m524 -68 c140 -71 167 -255 54 -362 -88 -84 -244 -75 -322 18
-92 112 -54 287 74 345 55 25 144 25 194 -1z m-467 -182 c-3 -56 1 -97 11
-127 l15 -43 -35 5 c-85 14 -128 110 -83 185 17 27 64 60 90 62 3 0 3 -37 2
-82z m160 -331 c15 -12 30 -34 33 -49 7 -27 6 -28 -38 -28 -42 0 -45 2 -51 31
-14 74 4 89 56 46z"/>
<path d="M1885 2505 c-23 -22 -25 -32 -25 -110 0 -78 2 -88 25 -110 31 -32 69
-32 100 0 23 22 25 32 25 110 0 78 -2 88 -25 110 -13 14 -36 25 -50 25 -14 0
-37 -11 -50 -25z"/>
<path d="M3136 2509 c-25 -19 -26 -25 -26 -113 0 -84 2 -95 23 -114 31 -29 72
-28 102 3 23 22 25 32 25 110 0 78 -2 88 -25 110 -30 30 -64 32 -99 4z"/>
<path d="M4685 2471 c-51 -23 -68 -42 -101 -115 -23 -50 -32 -60 -73 -78 -128
-55 -173 -146 -118 -243 17 -31 38 -48 93 -75 68 -34 72 -38 104 -103 38 -79
74 -108 140 -115 84 -8 144 41 189 153 9 23 29 38 84 65 57 28 76 43 94 75 55
97 10 188 -118 243 -41 18 -50 28 -73 78 -15 32 -35 67 -44 78 -20 23 -89 56
-117 56 -11 0 -38 -9 -60 -19z m89 -193 c40 -99 37 -96 144 -139 32 -13 49
-26 44 -31 -5 -5 -40 -22 -78 -37 l-69 -28 -30 -74 c-17 -41 -35 -74 -40 -73
-6 0 -23 34 -40 74 l-30 73 -69 28 c-38 15 -73 32 -78 37 -5 5 12 18 44 31
107 43 99 36 147 144 12 26 25 46 29 43 5 -3 16 -24 26 -48z"/>
</g>
</svg>
