<?xml version="1.0" standalone="no"?>
<!DOCTYPE svg PUBLIC "-//W3C//DTD SVG 20010904//EN"
 "http://www.w3.org/TR/2001/REC-SVG-20010904/DTD/svg10.dtd">
<svg version="1.0" xmlns="http://www.w3.org/2000/svg"
 width="512.000000pt" height="512.000000pt" viewBox="0 0 512.000000 512.000000"
 preserveAspectRatio="xMidYMid meet">

<g transform="translate(0.000000,512.000000) scale(0.100000,-0.100000)"
fill="#000000" stroke="none">
<path d="M1770 5106 c-152 -22 -296 -63 -421 -119 -71 -32 -207 -113 -236
-140 -47 -43 -17 -127 45 -127 17 0 56 18 93 42 129 84 280 144 450 178 369
75 763 -2 1054 -208 l70 -49 0 -84 c0 -75 4 -92 33 -151 21 -43 51 -83 83
-112 49 -44 138 -86 183 -86 20 0 28 -11 49 -69 81 -219 108 -493 72 -736 -22
-150 -21 -147 -53 -138 -38 11 -151 7 -184 -6 l-28 -11 0 75 c0 73 1 75 49
139 62 82 92 160 99 257 4 68 2 79 -17 98 -27 27 -82 28 -105 2 -10 -11 -21
-49 -27 -87 -18 -131 -89 -231 -199 -283 -54 -25 -61 -26 -289 -29 -250 -4
-275 0 -311 46 -21 27 -18 42 8 42 32 0 137 57 186 101 63 55 120 144 142 217
34 117 14 272 -47 376 -33 57 -81 72 -127 40 -30 -21 -29 -71 4 -135 15 -27
24 -52 22 -55 -3 -2 -179 -3 -391 -2 l-386 3 29 58 c36 68 37 86 9 121 -27 34
-77 36 -106 4 -53 -57 -93 -175 -93 -272 0 -203 123 -375 322 -448 l59 -21
-35 -36 -36 -36 -228 -3 c-248 -3 -284 2 -364 51 -94 57 -147 146 -163 270 -8
70 -30 97 -79 97 -44 0 -76 -37 -76 -89 1 -100 53 -232 121 -306 38 -42 39
-43 39 -120 0 -69 -2 -76 -17 -70 -67 25 -129 28 -209 9 -19 -5 -22 2 -37 98
-26 166 -29 247 -17 394 21 250 86 445 214 644 72 112 77 137 34 173 -27 22
-59 22 -90 -2 -56 -45 -176 -255 -226 -396 -96 -274 -115 -608 -52 -917 l19
-92 -31 -64 c-26 -52 -32 -77 -32 -131 -1 -158 90 -273 250 -316 5 -2 49 -61
96 -131 47 -71 118 -163 157 -205 39 -42 75 -89 81 -104 28 -73 -3 -177 -63
-214 -60 -37 -66 -101 -13 -136 33 -22 77 -8 134 40 40 35 92 123 92 157 0 10
2 18 4 18 3 0 29 -25 58 -57 56 -59 177 -154 241 -188 28 -15 37 -26 37 -45 0
-23 -7 -28 -57 -44 -32 -10 -107 -42 -168 -71 -326 -157 -575 -442 -690 -788
-56 -170 -65 -253 -65 -588 l0 -298 26 -20 c15 -12 33 -21 40 -21 29 0 64 25
74 53 6 18 10 136 10 296 0 290 10 388 55 524 24 74 87 212 104 230 10 10 91
-28 91 -42 0 -5 -7 -15 -16 -22 -46 -38 -103 -246 -111 -409 -8 -168 31 -373
92 -476 66 -113 223 -176 346 -140 30 8 126 58 214 112 l160 96 55 -14 c84
-20 354 -17 404 5 l40 18 165 -99 c91 -54 182 -105 201 -113 58 -23 166 -17
231 13 106 48 160 128 200 292 20 82 21 87 4 112 -9 15 -25 29 -36 31 -17 5
-19 15 -18 99 0 93 1 94 28 109 48 24 51 51 20 176 -23 89 -62 180 -85 200
-12 10 -8 16 27 36 22 12 45 23 49 23 12 0 77 -141 109 -237 48 -142 61 -266
61 -562 l0 -262 25 -24 c31 -32 69 -32 101 0 l26 26 -5 317 c-4 270 -7 330
-24 407 -109 484 -445 861 -900 1010 -47 15 -53 20 -53 44 0 24 10 34 63 65
35 21 100 69 145 107 l81 69 26 -49 c56 -101 172 -156 216 -102 33 40 24 67
-41 130 -41 39 -60 66 -60 82 0 13 -3 34 -6 46 -5 19 8 38 72 104 l79 80 12
-97 c38 -303 205 -562 463 -715 197 -116 457 -160 656 -109 136 35 236 92 340
195 76 75 98 105 137 184 26 51 47 104 47 117 0 71 -58 135 -142 154 -75 18
-119 42 -162 90 -74 82 -71 53 -74 661 -3 530 -3 547 -23 568 -29 31 -82 28
-108 -5 -21 -26 -21 -36 -21 -544 0 -304 4 -539 10 -571 15 -81 66 -177 124
-232 49 -47 156 -107 192 -107 11 0 26 -4 34 -10 12 -8 12 -14 -3 -45 -52
-109 -152 -207 -272 -265 -103 -50 -180 -64 -303 -57 -376 23 -675 293 -741
671 -6 33 -11 118 -11 189 l0 130 36 62 c32 54 43 64 78 75 99 28 192 120 217
214 18 67 7 173 -25 237 l-28 56 16 79 c27 134 37 233 37 389 0 203 -20 330
-78 509 -25 76 -25 80 -8 93 24 17 41 2 108 -96 60 -90 126 -227 162 -338 36
-112 78 -140 139 -92 33 26 33 52 0 154 -48 149 -131 307 -226 432 -38 50 -40
55 -28 83 7 17 17 33 21 36 30 18 255 -169 342 -286 86 -114 161 -284 188
-428 6 -35 20 -74 31 -87 27 -34 76 -34 108 0 23 25 24 27 11 103 -56 339
-282 656 -594 832 -41 23 -59 39 -63 58 -22 100 -64 174 -126 223 -143 114
-337 104 -473 -22 l-30 -28 -75 50 c-151 103 -341 181 -538 220 -137 27 -378
34 -512 15z m1517 -339 c94 -65 114 -211 41 -297 -40 -47 -82 -65 -153 -65
-60 0 -76 4 -111 28 -124 84 -115 274 16 345 62 33 150 28 207 -11z m-926
-878 c-42 -110 -131 -179 -256 -199 -89 -14 -115 -36 -115 -96 0 -97 70 -206
165 -258 37 -20 57 -21 295 -24 233 -3 294 1 354 24 14 6 16 -15 16 -219 0
-299 -17 -417 -89 -603 -54 -140 -125 -248 -236 -359 -113 -113 -190 -163
-310 -201 -399 -127 -813 139 -974 624 -51 154 -63 242 -68 515 l-5 248 28 -7
c16 -4 39 -11 52 -15 34 -13 508 -11 551 2 117 35 199 147 204 277 2 54 -22
78 -91 87 -79 11 -143 38 -193 83 -44 39 -99 128 -99 159 0 10 77 13 395 13
l395 0 -19 -51z m-1466 -730 c22 -6 52 -23 68 -37 25 -24 27 -31 27 -115 0
-48 -5 -97 -10 -108 -6 -10 -28 -28 -50 -39 -134 -68 -283 67 -222 201 23 53
48 76 99 95 47 16 40 16 88 3z m2306 -24 c42 -27 69 -78 69 -129 0 -142 -164
-218 -266 -123 l-33 32 6 98 c6 94 7 99 36 119 58 42 125 43 188 3z m-2174
-457 c6 -29 9 -54 8 -56 -2 -2 -16 17 -31 43 -22 39 -25 49 -13 56 22 14 24
12 36 -43z m1936 -9 c-14 -21 -28 -38 -30 -35 -2 2 1 24 8 50 10 40 13 44 30
35 18 -9 18 -11 -8 -50z m-953 -895 c63 3 132 8 153 12 l37 6 0 -121 c0 -108
2 -123 20 -141 51 -51 130 -9 130 71 0 21 4 39 9 39 16 0 131 -52 131 -59 0
-3 -22 -33 -48 -66 -26 -33 -70 -91 -96 -130 -27 -38 -53 -74 -57 -79 -5 -6
-41 22 -88 67 -91 89 -143 117 -221 117 -77 0 -125 -26 -218 -114 -89 -86 -79
-86 -142 9 -19 28 -61 84 -93 125 l-59 75 49 22 c26 12 60 25 76 28 26 7 27 6
27 -35 0 -23 4 -50 10 -60 14 -27 62 -41 91 -26 39 19 49 52 49 172 l0 111 63
-14 c45 -11 94 -13 177 -9z m-615 -346 c83 -105 330 -477 307 -465 -4 2 -61
37 -127 77 -179 109 -215 124 -310 125 -65 1 -89 6 -130 27 -100 53 -100 45
-10 138 74 76 187 170 205 170 4 0 33 -33 65 -72z m1304 30 c74 -56 133 -111
182 -169 l39 -47 -75 -41 c-68 -38 -80 -41 -124 -35 -75 10 -149 -18 -315
-117 l-148 -90 27 48 c92 160 331 493 353 493 3 0 30 -19 61 -42z"/>
<path d="M1511 3074 c-17 -22 -21 -41 -21 -109 0 -68 4 -87 21 -109 27 -34 77
-36 107 -3 19 20 22 35 22 113 0 82 -2 93 -23 112 -33 31 -80 29 -106 -4z"/>
<path d="M2351 3081 c-41 -41 -41 -200 -1 -233 25 -20 62 -23 90 -8 54 29 54
221 0 250 -30 16 -68 12 -89 -9z"/>
<path d="M1753 2569 c-73 -27 -42 -178 54 -271 154 -148 374 -73 439 151 12
40 13 59 6 77 -17 36 -53 55 -87 46 -31 -9 -40 -22 -76 -109 -24 -58 -67 -93
-114 -93 -39 0 -99 64 -113 122 -16 64 -60 95 -109 77z"/>
<path d="M3250 2410 c-37 -37 -19 -153 44 -285 101 -213 287 -351 540 -399 81
-16 118 -8 135 30 15 35 14 47 -9 77 -15 18 -36 29 -78 37 -147 29 -246 76
-337 161 -77 72 -137 182 -160 292 -7 38 -21 77 -31 88 -23 25 -78 25 -104 -1z"/>
</g>
</svg>
