<?xml version="1.0" standalone="no"?>
<!DOCTYPE svg PUBLIC "-//W3C//DTD SVG 20010904//EN"
 "http://www.w3.org/TR/2001/REC-SVG-20010904/DTD/svg10.dtd">
<svg version="1.0" xmlns="http://www.w3.org/2000/svg"
 width="512.000000pt" height="512.000000pt" viewBox="0 0 512.000000 512.000000"
 preserveAspectRatio="xMidYMid meet">

<g transform="translate(0.000000,512.000000) scale(0.100000,-0.100000)"
fill="#000000" stroke="none">
<path d="M2152 5105 c-222 -41 -390 -126 -549 -278 -121 -117 -210 -253 -263
-407 -47 -139 -52 -180 -57 -525 l-6 -330 -41 -30 c-133 -99 -151 -272 -39
-396 51 -56 105 -81 188 -88 l70 -6 7 -44 c4 -25 5 -47 3 -49 -3 -3 -80 -18
-172 -33 -92 -16 -179 -33 -194 -39 -63 -27 -105 -106 -89 -172 4 -18 120
-249 258 -513 138 -264 250 -481 248 -482 -1 -1 -132 -43 -292 -93 -159 -49
-322 -106 -361 -125 -128 -63 -230 -186 -279 -335 -16 -50 -18 -106 -21 -575
-3 -409 -1 -525 10 -545 28 -55 108 -49 130 10 l11 30 242 0 242 0 12 -30 c22
-53 69 -65 114 -29 14 11 26 29 26 40 0 18 12 19 391 19 l392 0 43 -40 c24
-22 52 -40 62 -40 24 0 72 37 72 56 0 11 19 14 89 14 85 0 89 -1 95 -24 3 -14
18 -29 36 -36 39 -16 88 2 96 36 6 23 10 24 95 24 70 0 89 -3 89 -14 0 -19 48
-56 73 -56 10 0 37 18 59 40 l40 40 394 0 c382 0 394 -1 394 -19 0 -11 12 -29
26 -40 45 -36 92 -24 114 29 l12 30 242 0 242 0 11 -30 c22 -59 102 -65 130
-10 11 20 13 136 10 545 -3 469 -5 525 -21 575 -49 149 -151 272 -279 335 -39
19 -202 76 -361 125 -160 50 -291 92 -292 93 -2 1 108 214 243 472 135 259
252 489 259 512 22 73 -16 154 -85 183 -15 6 -102 23 -194 39 -92 15 -170 30
-173 34 -3 3 -2 25 3 49 l9 43 64 6 c80 7 126 26 178 73 127 115 113 323 -28
421 l-38 26 -5 327 c-5 342 -10 384 -57 522 -53 154 -142 290 -263 407 -136
130 -280 211 -462 260 -99 26 -104 27 -465 29 -274 2 -383 0 -438 -11z m0
-786 c157 -127 334 -224 408 -224 74 0 251 97 408 225 35 28 67 50 72 48 4 -2
28 -28 53 -58 134 -166 263 -427 317 -640 48 -193 76 -220 230 -220 101 0 146
-13 178 -54 31 -40 36 -79 16 -122 -21 -45 -67 -74 -116 -74 -30 0 -39 5 -50
27 -18 38 -53 54 -89 41 -40 -14 -46 -30 -59 -150 -13 -135 -40 -231 -95 -343
-149 -302 -446 -505 -778 -533 -324 -28 -639 105 -836 353 -130 163 -191 315
-211 525 -11 112 -20 137 -56 150 -34 13 -71 -3 -92 -41 -16 -29 -20 -30 -65
-26 -57 5 -92 34 -108 88 -10 31 -9 43 7 75 29 58 71 77 178 81 118 5 129 8
169 43 34 30 38 39 87 210 28 99 74 215 127 322 46 94 52 131 26 160 -15 17
-13 22 31 88 41 61 49 69 66 60 29 -15 46 -12 77 15 15 13 31 25 35 25 5 0 36
-23 70 -51z m-609 -1592 c68 -147 199 -312 322 -407 l55 -42 0 -210 0 -209
-366 443 -366 443 154 26 c84 15 156 27 160 28 4 0 23 -32 41 -72z m2256 40
l133 -22 -366 -443 -366 -443 0 210 0 209 64 51 c127 102 245 251 313 397 31
69 35 73 61 68 15 -3 87 -15 161 -27z m-1658 -601 c78 -34 209 -65 322 -76
164 -16 379 16 516 76 30 14 56 23 58 20 2 -2 6 -116 10 -254 5 -216 4 -254
-9 -274 -30 -45 -470 -573 -478 -573 -6 0 -387 455 -468 559 -20 27 -22 39
-22 166 0 127 10 380 15 380 2 0 27 -11 56 -24z"/>
<path d="M1954 3737 c-35 -30 -38 -82 -6 -108 27 -22 257 -99 295 -99 57 0 90
79 51 122 -15 15 -274 108 -303 108 -5 0 -22 -11 -37 -23z"/>
<path d="M2982 3715 c-74 -24 -142 -51 -153 -61 -43 -39 -10 -124 48 -124 38
0 268 77 295 99 32 26 29 78 -6 108 -15 12 -32 23 -39 23 -7 0 -72 -20 -145
-45z"/>
<path d="M2050 3507 c-38 -19 -51 -54 -47 -121 3 -47 8 -63 26 -77 30 -25 76
-24 101 1 28 28 29 159 3 182 -27 24 -55 29 -83 15z"/>
<path d="M3020 3513 c-41 -15 -50 -35 -50 -110 0 -60 4 -77 20 -93 25 -25 71
-26 101 -1 21 17 24 28 24 90 0 57 -4 74 -20 90 -23 22 -53 32 -75 24z"/>
<path d="M2038 3071 c-52 -41 -41 -102 25 -130 42 -18 44 -22 116 -177 40 -88
80 -167 89 -176 9 -11 29 -18 52 -18 23 0 43 7 52 18 9 9 48 81 87 160 68 135
73 142 101 142 28 0 33 -7 101 -142 39 -79 78 -151 87 -160 9 -11 29 -18 52
-18 23 0 43 7 52 18 9 9 49 88 89 176 72 155 74 159 116 177 67 28 77 91 21
132 -24 18 -29 18 -101 3 -196 -40 -586 -47 -767 -12 -41 7 -91 17 -110 21
-28 5 -41 2 -62 -14z m315 -179 c3 -4 -3 -23 -13 -41 l-18 -35 -21 42 -21 42
34 0 c19 0 37 -3 39 -8z m466 -34 l-21 -42 -18 35 c-22 42 -18 49 26 49 l34 0
-21 -42z"/>
</g>
</svg>
