<?xml version="1.0" standalone="no"?>
<!DOCTYPE svg PUBLIC "-//W3C//DTD SVG 20010904//EN"
 "http://www.w3.org/TR/2001/REC-SVG-20010904/DTD/svg10.dtd">
<svg version="1.0" xmlns="http://www.w3.org/2000/svg"
 width="512.000000pt" height="512.000000pt" viewBox="0 0 512.000000 512.000000"
 preserveAspectRatio="xMidYMid meet">

<g transform="translate(0.000000,512.000000) scale(0.100000,-0.100000)"
fill="#000000" stroke="none">
<path d="M2350 5110 c-357 -44 -644 -173 -853 -382 -83 -84 -173 -206 -213
-291 -15 -31 -79 -81 -383 -299 -202 -144 -381 -276 -399 -294 -17 -18 -32
-42 -32 -53 0 -31 58 -142 131 -252 72 -107 233 -274 326 -337 l61 -42 -19
-62 c-44 -148 -63 -269 -63 -423 -1 -167 11 -253 56 -395 58 -186 175 -384
307 -523 83 -88 118 -84 186 22 l45 70 89 -90 89 -91 -101 -101 c-233 -233
-371 -511 -413 -834 -6 -47 -4 -54 19 -77 54 -54 121 -22 132 63 19 144 82
334 152 458 40 72 138 207 171 237 21 18 22 18 94 -49 428 -398 1129 -645
1910 -672 l167 -6 3 -319 3 -320 28 -24 c46 -39 95 -27 117 30 12 34 13 446 0
606 -28 358 -163 653 -412 901 l-107 107 90 91 89 90 45 -70 c48 -74 79 -95
118 -80 28 11 100 89 176 191 63 84 181 310 181 345 0 13 -11 37 -25 54 -26
29 -26 31 -11 88 8 32 17 75 20 96 5 27 12 37 25 37 10 0 29 9 42 19 23 19 24
24 23 153 -1 137 -24 286 -63 416 l-19 62 61 42 c93 63 254 230 326 337 73
110 131 221 131 252 0 11 -15 35 -32 53 -18 18 -197 150 -398 294 -349 250
-367 264 -392 314 -30 62 -108 173 -167 240 -49 55 -88 72 -124 53 -23 -12
-30 -8 -104 44 -75 52 -80 58 -76 86 7 45 -20 70 -126 116 -104 45 -228 80
-366 104 -107 19 -409 28 -515 15z m-1194 -1062 c-9 -47 -16 -103 -16 -125 0
-93 -4 -99 -92 -129 -44 -14 -89 -35 -99 -45 -26 -26 -24 -77 3 -106 26 -28
45 -28 123 -5 l60 19 18 -109 18 -108 -40 -50 c-22 -28 -43 -59 -46 -70 -9
-28 -18 -26 -85 20 -69 47 -168 143 -227 220 -47 63 -123 185 -123 199 0 5 46
43 103 84 253 184 412 296 415 292 2 -2 -4 -41 -12 -87z m3063 -99 c134 -95
245 -179 248 -185 5 -14 -60 -125 -120 -204 -59 -77 -158 -173 -227 -220 -67
-46 -76 -48 -85 -20 -3 11 -24 42 -46 70 l-40 50 18 108 18 109 60 -19 c77
-23 94 -23 122 4 29 27 31 80 4 107 -10 10 -55 31 -99 45 -88 30 -92 35 -92
130 0 22 -7 76 -15 119 -18 97 -19 102 -2 90 6 -5 122 -88 256 -184z m-2034
-41 c19 -152 63 -266 133 -340 84 -91 195 -123 256 -74 l30 23 50 -23 c73 -34
126 -32 171 7 19 17 40 48 46 70 l12 39 153 0 c171 0 285 13 357 40 l49 19 -5
-352 c-5 -382 -9 -418 -73 -603 -112 -327 -356 -577 -634 -650 -87 -23 -253
-23 -340 0 -278 73 -522 323 -634 650 -61 175 -68 229 -73 532 -5 307 -2 338
54 449 34 66 144 173 213 207 62 31 150 56 197 57 30 1 31 0 38 -51z m-702
-590 c34 -27 34 -27 41 -129 7 -97 6 -103 -16 -126 -51 -55 -142 -72 -205 -40
-123 64 -124 248 -1 311 50 25 136 17 181 -16z m2334 16 c94 -45 124 -184 56
-264 -68 -81 -189 -85 -261 -7 -22 23 -23 29 -16 125 5 74 11 105 23 116 52
47 135 59 198 30z m-1349 -1436 c87 -11 224 -3 300 18 22 6 22 6 22 -119 0
-69 3 -133 6 -142 10 -26 62 -44 94 -33 33 11 50 45 50 98 0 22 2 40 5 40 11
0 134 -49 173 -69 l42 -21 0 -133 c-1 -161 -9 -203 -50 -239 l-30 -28 -489 0
-488 0 -72 50 -72 51 3 152 3 152 85 36 c135 58 130 57 130 10 0 -77 43 -120
99 -99 45 16 50 35 51 172 0 128 0 128 23 122 12 -3 64 -11 115 -18z m-658
-360 c0 -30 -1 -31 -17 -16 -13 14 -14 20 -3 32 18 22 20 20 20 -16z m1638
-82 l42 -40 0 -278 0 -278 -34 0 c-61 0 -277 31 -427 61 -171 34 -374 92 -513
146 l-98 38 339 5 c316 5 341 6 383 26 67 31 106 68 137 131 24 51 28 70 31
180 l4 123 47 -36 c25 -21 65 -55 89 -78z m237 -336 c37 -73 95 -235 95 -264
0 -14 -10 -16 -67 -14 l-68 3 -3 173 c-1 94 0 172 3 172 2 0 21 -32 40 -70z"/>
<path d="M2037 3289 c-60 -9 -126 -48 -162 -95 -37 -49 -37 -89 0 -121 36 -32
68 -24 118 28 34 35 43 39 88 39 44 0 54 -4 95 -42 55 -51 95 -55 131 -14 31
36 29 56 -8 102 -65 82 -158 118 -262 103z"/>
<path d="M3010 3292 c-77 -10 -142 -46 -190 -107 -36 -45 -37 -65 -7 -101 36
-41 76 -37 131 14 41 38 51 42 95 42 45 0 54 -4 88 -39 50 -52 82 -60 118 -28
37 32 37 72 0 121 -50 65 -154 109 -235 98z"/>
<path d="M2305 2708 c-25 -19 -27 -26 -23 -72 13 -146 141 -270 278 -270 137
0 265 124 278 270 4 46 2 53 -23 72 -15 12 -35 22 -45 22 -31 0 -67 -38 -80
-85 -7 -25 -29 -64 -49 -87 -33 -36 -42 -41 -81 -41 -39 0 -48 5 -81 41 -20
23 -42 62 -49 87 -13 47 -49 85 -80 85 -10 0 -30 -10 -45 -22z"/>
<path d="M1823 930 c-24 -10 -83 -85 -83 -106 0 -14 -12 -18 -74 -29 -125 -21
-156 -145 -58 -238 28 -27 29 -31 24 -96 -3 -54 -1 -73 13 -95 38 -57 115 -72
186 -35 l41 21 48 -21 c128 -55 221 11 204 145 -6 53 -6 55 35 99 26 28 41 55
42 72 4 93 -34 138 -128 151 -45 7 -50 11 -74 55 -14 27 -39 57 -55 68 -30 20
-84 24 -121 9z m76 -215 c20 -35 41 -48 95 -60 l29 -6 -33 -34 c-29 -30 -32
-38 -29 -82 l4 -50 -42 19 c-42 19 -44 19 -89 -2 l-47 -20 7 40 c7 43 -2 69
-37 107 l-20 22 47 12 c38 9 51 19 69 50 12 21 23 39 24 39 0 0 10 -16 22 -35z"/>
<path d="M1200 427 c-13 -7 -30 -24 -37 -37 -16 -31 -18 -296 -3 -336 22 -57
71 -69 117 -30 l28 24 0 171 c0 157 -2 172 -20 190 -28 27 -56 33 -85 18z"/>
</g>
</svg>
