<?xml version="1.0" standalone="no"?>
<!DOCTYPE svg PUBLIC "-//W3C//DTD SVG 20010904//EN"
 "http://www.w3.org/TR/2001/REC-SVG-20010904/DTD/svg10.dtd">
<svg version="1.0" xmlns="http://www.w3.org/2000/svg"
 width="512.000000pt" height="512.000000pt" viewBox="0 0 512.000000 512.000000"
 preserveAspectRatio="xMidYMid meet">

<g transform="translate(0.000000,512.000000) scale(0.100000,-0.100000)"
fill="#000000" stroke="none">
<path d="M2123 5105 c-97 -26 -154 -63 -248 -159 -55 -56 -108 -100 -135 -113
-249 -114 -243 -112 -323 -117 -187 -11 -334 -142 -368 -328 -9 -48 -9 -80 -2
-118 10 -47 8 -60 -18 -130 -48 -133 -63 -229 -63 -400 0 -140 2 -161 23 -215
40 -99 90 -168 164 -222 l47 -35 -25 -30 c-79 -93 -65 -259 29 -350 53 -51
100 -71 179 -76 39 -3 70 -9 72 -16 1 -6 10 -47 20 -91 33 -152 101 -293 205
-429 l49 -64 -72 -35 c-98 -47 -133 -79 -344 -322 -161 -183 -186 -216 -200
-265 -13 -45 -14 -64 -5 -110 7 -30 8 -57 4 -61 -4 -4 -34 -14 -67 -24 -220
-62 -389 -225 -461 -445 -16 -48 -18 -105 -22 -477 l-3 -423 25 -25 c14 -14
37 -25 51 -25 28 0 75 40 75 65 0 13 46 15 400 15 l399 0 16 -30 c27 -53 74
-64 119 -29 17 14 26 30 26 50 0 16 -61 167 -136 335 -75 169 -138 323 -141
343 -7 52 13 93 111 223 121 161 125 142 -78 347 -90 91 -167 176 -170 187 -4
12 -2 32 3 45 5 13 92 119 194 236 174 197 190 213 257 246 89 45 148 55 184
32 26 -17 26 -19 26 -132 0 -113 0 -115 29 -144 36 -36 73 -37 106 -4 22 21
25 33 25 91 0 59 2 65 18 59 319 -126 605 -126 925 0 16 7 17 -14 15 -381 l-3
-388 -178 -71 c-97 -39 -184 -78 -191 -86 -8 -8 -58 -124 -112 -259 -53 -135
-100 -248 -104 -253 -3 -4 -17 105 -31 243 -19 189 -29 254 -41 267 -9 10 -80
49 -157 87 l-140 70 -3 198 c-3 223 -6 233 -75 231 -27 -1 -44 -8 -60 -28
l-23 -26 0 -735 c0 -626 2 -739 15 -763 23 -46 66 -54 109 -20 l26 20 0 475
c0 261 2 474 5 474 4 0 165 -79 172 -84 1 0 18 -167 38 -371 20 -203 38 -380
41 -393 12 -56 84 -82 122 -44 10 10 87 191 172 403 84 211 156 388 161 393 8
9 247 106 261 106 4 0 8 -216 8 -479 l0 -480 26 -20 c43 -34 86 -26 109 20 13
24 15 169 15 1017 l0 990 26 17 c36 23 95 13 184 -32 67 -33 83 -49 257 -246
102 -117 189 -223 194 -236 5 -13 7 -33 3 -45 -3 -11 -80 -96 -170 -187 -203
-205 -199 -186 -78 -347 98 -130 118 -171 111 -223 -3 -20 -66 -174 -141 -343
-75 -168 -136 -319 -136 -335 0 -20 9 -36 26 -50 45 -35 92 -24 119 29 l16 30
399 0 c354 0 400 -2 400 -15 0 -25 47 -65 75 -65 14 0 37 11 51 25 l25 25 -3
423 c-4 372 -6 429 -22 477 -49 151 -164 299 -287 373 -35 21 -102 49 -149 64
-47 14 -88 29 -92 32 -4 4 -3 31 4 61 9 46 8 65 -5 110 -14 49 -39 82 -200
265 -211 243 -246 275 -344 322 l-72 35 48 62 c103 135 174 283 206 431 10 44
19 85 20 91 2 6 35 13 73 16 119 9 216 86 249 197 20 70 12 129 -27 206 l-31
60 28 19 c164 115 226 304 194 585 -35 295 -182 568 -401 743 -104 83 -93 71
-140 145 -67 107 -214 193 -330 193 -30 0 -48 9 -86 41 -61 51 -127 85 -201
104 -81 21 -792 21 -870 0z m881 -163 c28 -12 76 -47 107 -77 56 -54 59 -55
116 -55 127 0 228 -59 277 -164 19 -40 38 -61 80 -89 180 -120 324 -320 388
-543 20 -69 23 -101 23 -254 0 -196 -6 -216 -81 -300 -59 -65 -131 -94 -245
-98 -94 -4 -99 -3 -123 21 l-26 26 0 236 0 236 -25 24 c-42 43 -103 28 -125
-29 -11 -30 -14 -368 -3 -454 9 -78 55 -148 121 -185 48 -27 64 -30 170 -35
116 -5 117 -5 150 -38 27 -27 32 -39 32 -78 0 -77 -49 -126 -123 -126 -29 0
-37 5 -47 29 -21 53 -92 62 -129 17 -7 -9 -17 -61 -22 -118 -4 -57 -15 -130
-24 -163 -90 -347 -348 -604 -701 -701 -33 -9 -116 -18 -186 -21 l-128 -6 0
202 0 201 80 0 80 0 0 -91 c0 -87 1 -92 29 -120 37 -37 65 -37 102 0 28 28 29
33 29 120 l0 91 91 0 c88 0 92 1 121 31 29 28 30 33 24 83 -18 158 -124 292
-269 343 -75 26 -339 26 -414 0 -145 -51 -251 -185 -269 -343 -6 -50 -5 -55
24 -83 29 -30 33 -31 121 -31 l91 0 0 -185 c0 -102 -4 -185 -8 -185 -19 0
-121 39 -182 70 -306 154 -502 447 -529 789 -8 97 -10 106 -36 129 -22 18 -35
22 -59 18 -32 -6 -66 -38 -66 -62 0 -19 -63 -18 -100 1 -42 22 -60 53 -60 106
0 53 23 90 67 107 15 6 73 12 128 15 112 4 157 20 210 72 67 67 69 81 75 385
6 302 6 305 72 366 54 52 96 68 168 68 76 0 98 -10 220 -99 137 -100 225 -135
340 -135 115 0 203 35 340 135 47 34 100 70 118 79 51 26 120 31 172 11 25
-10 63 -20 86 -22 36 -4 44 -1 63 22 42 54 21 99 -61 136 -45 20 -69 24 -158
24 -126 0 -157 -12 -292 -111 -127 -93 -176 -114 -268 -114 -92 0 -141 21
-268 114 -136 100 -165 111 -297 111 -101 0 -115 -2 -170 -29 -79 -39 -149
-110 -188 -194 l-32 -67 -5 -273 -5 -274 -29 -25 c-28 -24 -35 -25 -117 -21
-115 5 -204 47 -261 123 -62 82 -71 124 -65 299 5 159 20 232 73 359 23 53 24
65 15 103 -33 130 23 253 136 301 18 7 68 13 113 13 72 0 86 3 138 32 31 18
98 51 147 73 120 54 167 88 244 174 66 75 114 107 184 121 23 5 209 8 412 7
362 -2 371 -2 419 -25z"/>
<path d="M1964 3508 c-22 -10 -44 -47 -44 -73 0 -8 10 -25 23 -39 17 -21 43
-30 124 -48 97 -20 103 -20 128 -4 46 30 53 91 13 124 -12 10 -196 54 -217 51
-3 0 -16 -5 -27 -11z"/>
<path d="M2888 3506 c-56 -20 -85 -42 -117 -87 -40 -55 -55 -121 -41 -184 48
-216 325 -258 437 -68 23 40 28 59 28 113 -1 70 -18 114 -64 163 -58 63 -168
92 -243 63z m111 -151 c31 -15 54 -65 44 -93 -32 -92 -163 -78 -163 18 0 39
13 61 45 78 27 15 41 15 74 -3z"/>
<path d="M2044 3268 c-30 -14 -44 -50 -44 -113 0 -68 29 -108 79 -108 55 0 76
31 76 114 0 65 -2 73 -28 95 -30 26 -50 29 -83 12z"/>
<path d="M2290 1427 c-13 -7 -31 -24 -39 -38 -27 -49 -4 -78 148 -178 80 -53
147 -91 161 -91 15 0 81 37 159 90 166 110 186 139 138 196 -38 44 -69 37
-190 -45 l-107 -71 -102 68 c-119 80 -134 86 -168 69z"/>
</g>
</svg>
