<?xml version="1.0" standalone="no"?>
<!DOCTYPE svg PUBLIC "-//W3C//DTD SVG 20010904//EN"
 "http://www.w3.org/TR/2001/REC-SVG-20010904/DTD/svg10.dtd">
<svg version="1.0" xmlns="http://www.w3.org/2000/svg"
 width="512.000000pt" height="512.000000pt" viewBox="0 0 512.000000 512.000000"
 preserveAspectRatio="xMidYMid meet">

<g transform="translate(0.000000,512.000000) scale(0.100000,-0.100000)"
fill="#ffffff" stroke="none">
<path d="M2420 5113 c-76 -8 -199 -37 -280 -65 -191 -68 -330 -156 -481 -307
-192 -191 -311 -416 -354 -671 -8 -47 -46 -555 -85 -1130 -38 -575 -75 -1116
-82 -1202 l-12 -158 -87 -31 c-158 -57 -274 -154 -338 -283 -59 -120 -61 -140
-61 -704 l0 -513 25 -24 c13 -14 36 -25 50 -25 28 0 75 40 75 65 0 13 50 15
440 15 l440 0 85 -42 c98 -49 129 -47 155 9 l15 33 633 0 632 0 10 -24 c10
-28 47 -56 73 -56 10 0 53 18 96 40 l78 40 441 0 c392 0 442 -2 442 -15 0 -25
47 -65 75 -65 14 0 37 11 50 25 l25 24 0 513 c0 564 -2 584 -61 704 -64 130
-179 226 -337 283 -51 19 -92 37 -92 41 0 5 -7 91 -15 192 -8 101 -44 626 -80
1168 -73 1108 -69 1063 -97 1185 -83 365 -336 685 -676 854 -198 99 -476 148
-702 124z m362 -1449 c456 -86 834 -446 943 -898 19 -78 34 -210 66 -586 22
-267 40 -539 40 -605 -2 -607 -432 -1121 -1039 -1242 -121 -24 -357 -24 -472
0 -250 53 -456 159 -633 325 -88 84 -121 101 -155 83 -22 -12 -30 -5 -87 75
-39 55 -42 66 -20 84 23 19 18 65 -15 131 -69 135 -116 322 -126 492 -9 158
76 1127 110 1260 61 236 216 478 405 628 288 231 633 319 983 253z"/>
<path d="M2425 3509 c-152 -20 -315 -82 -446 -169 -95 -64 -245 -221 -303
-318 -57 -96 -108 -227 -130 -332 -25 -124 -99 -1050 -93 -1160 27 -456 314
-836 747 -987 132 -47 208 -58 375 -57 166 1 270 22 416 83 160 67 343 209
450 350 65 86 153 264 184 373 50 180 50 235 0 829 -47 562 -56 621 -114 760
-36 85 -101 197 -130 223 -27 24 -75 25 -101 1 -30 -27 -26 -78 10 -130 39
-57 98 -180 106 -222 5 -27 -2 -43 -46 -107 -135 -196 -354 -339 -590 -388
-127 -26 -327 -21 -445 11 -227 63 -443 226 -564 426 l-34 56 28 70 c98 251
338 455 611 520 100 23 261 28 363 9 86 -15 211 -62 284 -105 69 -41 99 -44
132 -10 55 54 21 105 -117 173 -186 92 -391 126 -593 101z m-116 -1396 c81
-21 119 -25 246 -26 167 0 270 17 408 71 l75 29 4 -161 c4 -187 15 -222 94
-306 l46 -50 -58 -72 c-81 -102 -276 -295 -355 -351 -81 -57 -134 -77 -208
-77 -77 0 -119 14 -193 62 -72 48 -323 294 -387 381 l-43 57 41 46 c24 25 53
68 67 97 22 48 24 63 24 219 l0 166 71 -30 c39 -16 115 -41 168 -55z"/>
<path d="M2495 2953 c-98 -13 -193 -57 -234 -109 -27 -34 -27 -56 2 -90 30
-34 74 -35 119 -1 47 35 91 47 172 47 86 0 131 -12 182 -47 70 -47 134 -24
134 48 0 30 -6 43 -32 65 -81 67 -221 103 -343 87z"/>
</g>
</svg>
