<?xml version="1.0" standalone="no"?>
<!DOCTYPE svg PUBLIC "-//W3C//DTD SVG 20010904//EN"
 "http://www.w3.org/TR/2001/REC-SVG-20010904/DTD/svg10.dtd">
<svg version="1.0" xmlns="http://www.w3.org/2000/svg"
 width="512.000000pt" height="512.000000pt" viewBox="0 0 512.000000 512.000000"
 preserveAspectRatio="xMidYMid meet">

<g transform="translate(0.000000,512.000000) scale(0.100000,-0.100000)"
fill="#000000" stroke="none">
<path d="M1585 5110 c-217 -33 -352 -142 -400 -325 -18 -71 -20 -246 -3 -346
l11 -70 -56 -54 c-98 -96 -167 -219 -209 -370 -18 -68 -21 -107 -22 -260 0
-157 4 -196 27 -306 l27 -126 -39 -41 c-132 -144 -158 -361 -65 -544 55 -109
188 -213 297 -233 27 -5 38 -13 41 -29 3 -11 12 -63 21 -114 18 -110 69 -257
119 -346 136 -243 388 -421 702 -495 46 -11 52 -16 58 -43 3 -17 6 -41 6 -53
0 -22 -1 -22 -56 -9 -30 7 -105 18 -167 24 -251 27 -457 -29 -576 -155 -27
-29 -70 -63 -96 -75 -56 -27 -101 -81 -119 -140 -11 -39 -18 -47 -52 -59 -190
-66 -276 -114 -380 -214 -123 -116 -205 -260 -293 -510 -49 -140 -51 -168 -15
-196 30 -24 43 -26 77 -10 29 13 37 29 84 164 123 357 266 517 543 611 l64 21
26 -27 c102 -109 294 -80 359 53 26 54 17 52 295 68 l201 12 66 -45 c266 -181
722 -179 1009 3 l65 42 190 -12 c267 -17 256 -14 285 -68 38 -73 124 -123 209
-123 44 0 128 38 159 73 l24 25 66 -22 c271 -93 412 -246 532 -581 54 -150 70
-182 96 -194 35 -16 48 -14 78 10 36 28 34 56 -15 196 -83 235 -158 373 -268
486 -104 108 -215 175 -384 232 -69 23 -70 23 -87 75 -18 54 -57 103 -101 125
-14 8 -55 43 -90 78 -100 99 -213 146 -395 162 -86 7 -262 -7 -358 -29 -55
-13 -56 -13 -56 9 0 12 3 36 6 53 6 27 12 32 58 43 153 36 324 112 434 193 57
43 62 49 62 84 0 41 -18 64 -58 77 -18 5 -41 -5 -100 -44 -148 -96 -269 -144
-458 -181 -354 -68 -810 -36 -1076 76 -312 131 -490 376 -539 742 -13 98 -6
765 10 983 15 190 59 347 133 463 40 63 120 150 163 176 l32 20 99 -41 c323
-135 655 -219 920 -236 94 -5 103 -4 123 16 13 13 21 34 21 55 0 54 -31 72
-142 80 -258 20 -584 106 -879 232 -69 30 -134 54 -143 54 -35 0 -137 -64
-200 -125 -159 -155 -251 -368 -274 -629 l-7 -80 -50 -13 c-27 -7 -53 -13 -56
-13 -3 0 -14 46 -25 103 -25 137 -25 363 0 462 39 151 112 264 224 347 l55 41
-7 61 c-3 33 -10 84 -15 111 -6 28 -10 92 -10 144 -2 291 134 383 521 352 170
-14 193 -10 204 33 9 39 1 68 -26 87 -44 32 -302 49 -435 29z m-398 -2210 c-5
-168 -10 -306 -12 -308 -8 -9 -57 14 -101 46 -35 27 -59 57 -84 106 -31 62
-35 77 -35 150 0 68 4 90 28 138 33 68 110 141 170 161 23 8 42 14 43 13 0 0
-3 -138 -9 -306z m1388 -1504 c110 0 221 4 246 8 l46 7 5 -108 c6 -117 25
-180 79 -261 16 -23 29 -44 29 -46 0 -9 -164 -76 -225 -92 -93 -24 -292 -25
-388 -1 -58 14 -227 84 -227 93 0 2 14 25 30 51 52 82 72 149 78 261 l5 103
61 -8 c33 -4 151 -7 261 -7z m-1225 -406 c26 -26 26 -81 0 -105 -46 -42 -120
-10 -120 52 0 42 30 73 70 73 17 0 39 -9 50 -20z m2510 0 c26 -26 26 -81 0
-105 -46 -42 -120 -10 -120 52 0 42 30 73 70 73 17 0 39 -9 50 -20z"/>
<path d="M3813 5069 c-103 -91 -230 -140 -417 -159 -178 -18 -397 3 -814 81
-221 41 -279 49 -298 40 -48 -21 -54 -98 -10 -125 23 -15 370 -84 581 -116
395 -60 684 -43 884 50 35 17 65 29 67 27 2 -2 -3 -48 -11 -103 -46 -301 -161
-533 -333 -670 -73 -58 -195 -117 -297 -144 -44 -12 -89 -30 -99 -40 -51 -49
1 -138 73 -125 69 12 216 66 290 106 l73 39 33 -20 c85 -53 158 -167 195 -306
43 -162 68 -1021 36 -1234 -18 -115 -57 -241 -102 -332 -40 -79 -41 -87 -13
-122 18 -23 28 -27 63 -24 38 3 43 7 73 57 18 29 46 92 64 140 26 73 39 126
75 317 3 16 14 23 41 28 21 3 66 19 101 36 174 82 285 299 253 494 -14 86 -56
180 -105 234 l-37 41 13 63 c7 38 12 135 12 243 -1 161 -3 190 -26 276 -53
198 -134 345 -260 476 l-69 71 30 94 c51 157 75 293 87 490 7 116 7 116 -19
142 -39 39 -68 33 -134 -25z m64 -954 c62 -80 127 -221 155 -331 19 -74 23
-116 23 -254 0 -91 -5 -172 -10 -181 -9 -14 -16 -13 -71 3 l-61 19 -6 87 c-15
210 -92 398 -210 515 l-69 68 44 47 c24 26 57 68 73 94 l30 47 28 -27 c16 -15
49 -54 74 -87z m137 -943 c128 -69 187 -233 141 -389 -20 -66 -93 -148 -160
-179 l-50 -24 -7 168 c-3 92 -8 233 -10 315 -5 168 -11 160 86 109z"/>
<path d="M3318 4551 c-13 -11 -30 -39 -37 -62 -19 -62 -110 -150 -184 -177
-124 -47 -222 -50 -434 -15 l-102 17 -26 -24 c-34 -32 -34 -81 0 -108 29 -23
162 -50 288 -59 259 -18 479 84 575 266 47 89 49 115 14 151 -35 35 -60 38
-94 11z"/>
<path d="M1718 3523 c-67 -8 -99 -75 -59 -124 19 -23 25 -24 203 -30 101 -3
231 -14 290 -24 100 -17 109 -17 132 -1 56 36 41 111 -26 133 -86 28 -438 59
-540 46z"/>
<path d="M3144 3520 c-137 -11 -284 -38 -311 -56 -45 -29 -39 -103 11 -125 18
-9 47 -7 122 6 59 11 174 20 283 23 177 4 185 6 208 28 29 29 29 66 1 99 -21
23 -31 26 -118 29 -52 3 -140 1 -196 -4z"/>
<path d="M1870 3209 c-49 -20 -93 -63 -116 -113 -72 -154 32 -320 201 -320
171 0 275 171 198 325 -41 80 -94 113 -186 116 -40 2 -83 -2 -97 -8z m139
-165 c42 -54 13 -118 -54 -118 -67 0 -96 64 -54 118 15 19 30 26 54 26 24 0
39 -7 54 -26z"/>
<path d="M3080 3209 c-77 -32 -140 -123 -140 -203 0 -132 96 -230 225 -230
221 0 307 283 124 410 -35 24 -53 29 -113 31 -39 2 -82 -2 -96 -8z m139 -165
c42 -54 13 -118 -54 -118 -67 0 -96 64 -54 118 15 19 30 26 54 26 24 0 39 -7
54 -26z"/>
<path d="M2506 3077 c-38 -38 -146 -337 -146 -405 0 -30 43 -72 73 -72 44 0
65 30 96 136 17 55 46 138 66 184 42 102 44 131 9 159 -35 27 -69 27 -98 -2z"/>
<path d="M2067 2448 c-29 -23 -38 -65 -27 -133 42 -261 227 -405 520 -405 294
0 478 144 520 406 12 77 -4 130 -42 139 -13 4 -71 -4 -129 -17 -92 -20 -131
-22 -349 -22 -216 0 -257 2 -347 22 -118 26 -124 26 -146 10z m493 -182 c150
0 286 5 313 11 58 13 59 7 14 -67 -57 -96 -174 -150 -327 -150 -153 0 -270 54
-327 150 -45 74 -44 80 15 67 26 -6 162 -11 312 -11z"/>
<path d="M2160 463 c-32 -6 -57 -28 -64 -57 -5 -21 -13 -24 -83 -30 -47 -4
-79 -2 -81 3 -2 6 -13 22 -24 37 -22 27 -22 27 -117 20 -99 -7 -292 -32 -324
-42 -9 -3 -24 -19 -32 -35 -18 -33 -12 -64 37 -218 33 -102 62 -141 103 -141
28 0 75 40 75 65 0 13 95 15 903 15 l902 0 15 -33 c18 -39 58 -56 95 -39 33
15 66 86 99 215 28 107 26 140 -9 163 -24 16 -163 36 -415 60 -162 15 -1023
29 -1080 17z"/>
</g>
</svg>
