<?xml version="1.0" standalone="no"?>
<!DOCTYPE svg PUBLIC "-//W3C//DTD SVG 20010904//EN"
 "http://www.w3.org/TR/2001/REC-SVG-20010904/DTD/svg10.dtd">
<svg version="1.0" xmlns="http://www.w3.org/2000/svg"
 width="512.000000pt" height="512.000000pt" viewBox="0 0 512.000000 512.000000"
 preserveAspectRatio="xMidYMid meet">

<g transform="translate(0.000000,512.000000) scale(0.100000,-0.100000)"
fill="#000000" stroke="none">
<path d="M1397 5109 c-43 -25 -41 -51 23 -266 34 -112 58 -207 55 -213 -3 -5
-37 -50 -75 -101 -38 -51 -95 -145 -127 -209 -31 -63 -58 -117 -60 -119 -1 -2
-76 24 -166 58 -174 66 -203 70 -232 28 -8 -12 -15 -32 -15 -44 0 -14 60 -98
161 -224 l161 -202 -1 -341 c-2 -401 1 -417 80 -501 l49 -52 -26 -24 c-36 -34
-82 -134 -96 -206 -15 -83 2 -175 49 -265 l35 -68 -35 -68 c-79 -151 -69 -302
30 -455 16 -24 16 -30 3 -50 -37 -59 -69 -126 -75 -159 -4 -21 -11 -38 -16
-38 -5 0 -57 18 -115 40 -59 22 -119 40 -135 40 -36 0 -73 -44 -65 -80 3 -14
46 -103 96 -198 51 -95 90 -175 88 -176 -1 -2 -28 -16 -58 -32 -83 -44 -180
-145 -224 -233 -61 -120 -66 -162 -66 -554 l0 -348 25 -24 c31 -32 69 -32 100
0 l25 24 0 318 c0 349 6 416 44 498 40 87 165 205 219 205 8 0 122 -206 283
-511 148 -281 279 -522 291 -535 27 -29 62 -31 97 -3 18 14 26 30 26 51 0 20
-102 225 -316 632 -174 330 -334 634 -356 675 -39 70 -40 73 -17 66 13 -4 354
-133 756 -286 403 -154 738 -279 744 -279 6 0 348 129 761 286 412 157 751
284 753 282 2 -2 -156 -304 -351 -673 -244 -463 -353 -680 -354 -702 0 -22 8
-37 26 -52 35 -28 70 -26 97 3 12 13 143 254 291 535 190 361 274 511 286 511
52 0 176 -116 215 -202 39 -86 45 -146 45 -496 l0 -323 25 -24 c31 -32 69 -32
100 0 l25 24 0 348 c0 394 -6 438 -67 556 -44 86 -144 189 -223 231 -30 16
-57 30 -58 32 -2 1 37 81 88 176 50 95 93 184 96 198 8 36 -29 80 -65 80 -16
0 -76 -18 -135 -40 -58 -22 -110 -40 -115 -40 -5 0 -12 17 -16 38 -6 33 -38
100 -75 159 -13 20 -13 26 3 50 99 153 109 304 30 455 l-35 68 35 68 c47 89
63 177 48 263 -12 73 -59 174 -95 208 l-25 24 49 54 c79 86 81 100 79 499 l-1
341 162 203 c147 184 161 206 156 233 -16 80 -46 81 -243 6 -90 -34 -165 -60
-166 -58 -2 2 -29 56 -60 119 -32 64 -89 158 -127 209 -38 51 -72 96 -75 101
-3 6 21 101 55 213 66 222 68 245 14 269 -35 16 -55 8 -238 -107 l-155 -97
-113 56 c-227 112 -392 150 -648 150 -256 0 -421 -38 -648 -150 l-113 -56
-152 95 c-208 129 -209 130 -250 106z m1333 -154 c129 -17 259 -54 363 -103
l78 -37 -85 -53 -84 -52 -53 20 c-157 62 -397 86 -566 56 -77 -13 -194 -45
-253 -70 -9 -3 -49 16 -98 48 l-84 53 94 41 c218 96 453 129 688 97z m-990
-188 c80 -50 162 -101 183 -114 l37 -24 -77 -58 c-43 -33 -100 -82 -126 -109
-25 -28 -48 -48 -51 -44 -2 4 -32 102 -66 217 -35 116 -65 216 -68 224 -6 17
-20 24 168 -92z m1745 -116 c-35 -117 -66 -219 -69 -227 -4 -10 -20 2 -53 37
-26 28 -83 77 -125 110 -77 57 -78 59 -56 73 134 85 363 225 365 223 1 -2 -27
-99 -62 -216z m-700 -30 c273 -67 513 -257 637 -506 44 -87 44 -90 -3 -104
-51 -16 -89 -52 -89 -86 0 -32 41 -75 72 -75 13 0 151 49 308 109 157 60 286
107 288 106 2 -2 -102 -135 -231 -297 l-235 -293 -5 -130 c-3 -85 -11 -146
-22 -177 -22 -62 -94 -142 -159 -176 -49 -26 -57 -27 -211 -27 -159 0 -161 0
-225 31 -41 20 -97 61 -151 111 -89 81 -131 103 -200 103 -69 0 -106 -19 -196
-102 -56 -51 -112 -92 -153 -112 -64 -31 -66 -31 -225 -31 -154 0 -162 1 -211
27 -65 34 -137 114 -159 176 -11 31 -19 92 -22 177 l-5 130 -235 293 c-129
162 -233 295 -231 297 2 1 320 -118 708 -266 388 -148 716 -269 730 -269 32 0
584 210 610 233 44 37 13 127 -44 127 -13 0 -76 -20 -140 -44 l-116 -44 -54
60 c-30 33 -82 99 -115 146 -33 48 -68 97 -77 110 -9 13 -27 28 -40 34 -41 19
-74 -5 -133 -97 -66 -103 -193 -251 -212 -247 -15 4 -572 214 -578 218 -6 5
55 129 94 190 48 75 163 194 240 249 110 78 257 142 380 164 33 6 71 13 85 15
53 10 248 -4 325 -23z m-1222 -260 c15 -50 27 -97 27 -105 0 -8 -17 -50 -38
-94 l-39 -79 -73 28 c-40 16 -74 30 -77 33 -12 12 148 306 168 306 3 0 17 -40
32 -89z m2084 7 c54 -86 118 -217 110 -225 -3 -2 -38 -17 -77 -33 l-73 -28
-42 86 -41 86 30 98 c16 54 32 98 35 98 4 0 30 -37 58 -82z m-1030 -505 c28
-38 60 -77 72 -87 11 -11 21 -23 21 -27 0 -8 -128 -59 -150 -59 -22 0 -150 51
-150 59 0 4 9 16 21 27 11 10 43 49 71 86 27 37 53 68 58 68 4 0 30 -30 57
-67z m-1259 -343 l60 -75 -56 -11 c-32 -6 -65 -14 -74 -19 -17 -7 -18 2 -18
101 0 124 -7 123 88 4z m2492 -6 c0 -97 -1 -106 -17 -99 -10 4 -43 12 -74 19
l-57 11 70 88 c38 48 72 87 74 87 2 0 4 -48 4 -106z m-2398 -320 c15 -81 15
-88 0 -120 -14 -28 -23 -34 -50 -34 -74 0 -122 48 -122 123 0 42 5 54 34 83
28 28 41 34 78 34 l43 0 17 -86z m2354 52 c19 -19 34 -45 35 -57 2 -40 -3 -73
-13 -92 -15 -28 -70 -57 -109 -57 -30 0 -38 5 -51 34 -15 31 -15 40 0 120 l17
86 44 0 c36 0 49 -6 77 -34z m-1213 -197 c12 -7 51 -40 87 -74 82 -78 130
-108 227 -142 71 -25 91 -27 228 -27 169 0 235 16 330 79 27 19 50 33 52 32 6
-6 -30 -145 -55 -214 -91 -249 -296 -460 -542 -556 -139 -54 -183 -62 -365
-61 -155 0 -178 2 -258 27 -355 109 -613 389 -681 739 l-13 66 51 -33 c98 -65
152 -78 326 -79 143 0 161 2 233 27 97 34 145 64 227 142 91 87 110 96 153 74z
m1159 -227 c44 -39 82 -107 92 -164 9 -52 -9 -123 -51 -189 -50 -82 -50 -136
0 -217 76 -122 71 -217 -18 -348 -35 -52 -35 -136 0 -188 42 -61 63 -109 66
-150 l4 -38 -154 -59 c-85 -33 -157 -57 -160 -53 -3 3 5 24 18 47 81 141 86
166 47 237 -75 137 -79 148 -74 221 5 58 12 80 43 131 58 93 58 131 1 242 -59
114 -59 139 -2 259 45 92 96 249 96 291 0 46 23 40 92 -22z m-2292 24 c0 -45
51 -201 95 -293 59 -121 59 -146 -1 -260 -58 -109 -57 -147 2 -243 37 -60 39
-68 39 -144 0 -68 -4 -88 -25 -124 -81 -141 -85 -160 -44 -238 15 -27 35 -66
46 -87 11 -21 19 -40 16 -42 -2 -2 -74 22 -159 55 l-154 59 3 33 c4 40 30 100
65 152 38 55 38 137 0 192 -47 70 -66 125 -66 189 1 63 10 90 57 169 43 72 41
126 -7 204 -40 65 -60 143 -50 195 9 49 48 119 85 153 61 58 98 69 98 30z
m346 -625 c40 -37 100 -86 133 -107 l61 -39 0 -195 c0 -172 -3 -200 -20 -235
-33 -70 -82 -110 -173 -144 -73 -27 -75 -26 -88 6 -5 14 -23 46 -40 70 l-29
44 35 58 c20 32 43 80 51 106 31 105 8 261 -52 349 -21 31 -25 42 -15 55 6 9
21 35 33 59 12 23 24 42 26 42 2 0 37 -31 78 -69z m1612 27 c12 -24 27 -50 33
-59 9 -12 6 -24 -14 -55 -42 -63 -67 -148 -67 -229 0 -88 18 -150 65 -226 l35
-58 -29 -44 c-17 -24 -35 -56 -40 -70 -13 -32 -15 -33 -88 -6 -91 34 -140 74
-173 144 -17 35 -20 63 -20 235 l0 195 61 39 c33 22 93 70 132 107 40 38 74
68 78 69 3 0 15 -19 27 -42z m-1118 -295 c85 -23 113 -26 260 -26 168 0 189 3
378 59 l22 6 0 -129 c0 -149 10 -215 44 -288 46 -101 128 -171 252 -215 l76
-27 -386 -146 -386 -147 -312 119 c-172 66 -340 129 -373 142 -33 12 -64 26
-68 30 -5 4 20 16 56 28 116 39 200 109 250 208 36 71 47 139 47 290 l0 135
23 -6 c12 -4 65 -19 117 -33z"/>
<path d="M2030 3330 c-26 -26 -34 -60 -28 -122 6 -59 32 -88 79 -88 51 0 69
30 69 113 0 64 -3 76 -23 95 -29 27 -71 28 -97 2z"/>
<path d="M2992 3327 c-31 -33 -32 -157 -2 -187 25 -25 71 -26 100 -2 24 20 38
98 26 147 -16 62 -83 85 -124 42z"/>
<path d="M2269 2691 c-37 -37 -37 -62 1 -104 65 -74 232 -119 362 -98 131 22
248 94 248 152 0 25 -52 79 -75 79 -9 0 -44 -17 -78 -37 -60 -38 -61 -38 -167
-38 -106 0 -107 0 -167 38 -34 20 -69 37 -78 37 -9 0 -30 -13 -46 -29z"/>
<path d="M2512 613 c-30 -27 -417 -496 -425 -516 -9 -23 11 -75 33 -87 55 -29
77 -10 280 234 85 102 157 186 160 186 3 0 75 -84 160 -186 203 -244 225 -263
280 -234 22 12 42 64 33 87 -8 20 -395 489 -425 516 -11 9 -33 17 -48 17 -15
0 -37 -8 -48 -17z"/>
</g>
</svg>
