<?xml version="1.0" standalone="no"?>
<!DOCTYPE svg PUBLIC "-//W3C//DTD SVG 20010904//EN"
 "http://www.w3.org/TR/2001/REC-SVG-20010904/DTD/svg10.dtd">
<svg version="1.0" xmlns="http://www.w3.org/2000/svg"
 width="512.000000pt" height="512.000000pt" viewBox="0 0 512.000000 512.000000"
 preserveAspectRatio="xMidYMid meet">

<g transform="translate(0.000000,512.000000) scale(0.100000,-0.100000)"
fill="#000000" stroke="none">
<path d="M2341 5109 c-221 -24 -487 -98 -683 -191 -152 -72 -164 -98 -91 -200
l35 -48 -54 -58 c-140 -152 -231 -353 -258 -572 -5 -46 -10 -206 -10 -355 l0
-270 -47 -35 c-88 -65 -130 -187 -99 -292 32 -110 131 -187 255 -197 l66 -6 7
-44 c4 -25 5 -47 3 -49 -3 -3 -79 -18 -170 -33 -202 -34 -202 -34 -243 -72
-39 -37 -57 -94 -44 -140 5 -17 122 -248 260 -512 138 -264 249 -481 248 -482
-2 -2 -133 -44 -292 -93 -159 -50 -322 -106 -362 -126 -125 -61 -213 -163
-271 -313 l-26 -66 -3 -452 -3 -453 25 -25 c14 -14 37 -25 51 -25 28 0 75 40
75 65 0 13 69 15 639 15 l639 0 18 -27 c23 -36 44 -52 69 -53 28 0 64 27 75
56 9 24 10 24 170 24 l160 0 11 -27 c27 -71 111 -71 138 0 l11 27 160 0 c160
0 161 0 170 -24 11 -29 47 -56 75 -56 25 1 46 17 69 52 l18 28 639 0 c570 0
639 -2 639 -15 0 -25 47 -65 75 -65 14 0 37 11 51 25 l25 25 -3 453 -3 452
-26 66 c-56 144 -141 246 -258 308 -36 19 -198 76 -365 128 -165 51 -301 95
-302 96 -2 1 108 214 243 472 135 259 252 487 260 508 18 51 4 110 -37 152
-38 39 -37 39 -248 74 -89 16 -164 30 -167 33 -2 2 -1 24 3 49 l7 44 66 6
c124 10 223 87 255 197 31 105 -11 227 -99 292 l-47 35 0 270 c0 288 -9 395
-41 515 -39 146 -131 310 -232 417 l-49 52 35 49 c73 102 61 128 -91 200 -335
159 -749 229 -1121 191z m1207 -722 c81 -134 132 -300 132 -426 l0 -60 -107
-34 -108 -33 -60 115 c-65 125 -119 209 -198 309 -27 35 -46 67 -41 71 5 4 41
32 79 63 39 31 93 80 120 108 l50 51 50 -54 c28 -30 65 -80 83 -110z m-1361
-204 c43 -25 134 -73 203 -107 166 -80 175 -80 344 2 71 34 162 82 203 107 40
25 78 45 83 45 13 0 108 -121 163 -206 100 -155 190 -374 256 -619 6 -23 26
-55 46 -75 35 -34 35 -34 155 -40 136 -7 161 -18 194 -85 17 -35 18 -42 5 -79
-17 -50 -67 -86 -118 -86 -30 0 -39 6 -53 30 -21 37 -59 53 -92 40 -35 -13
-43 -34 -51 -130 -21 -245 -119 -457 -289 -625 -184 -183 -413 -277 -676 -277
-262 0 -488 92 -675 276 -171 167 -269 380 -290 626 -8 96 -16 117 -51 130
-33 13 -71 -3 -92 -40 -14 -24 -23 -30 -53 -30 -51 0 -101 36 -118 86 -13 37
-12 44 5 79 33 67 57 78 195 85 l121 6 38 40 c29 31 41 56 55 114 46 192 142
418 242 575 54 83 150 205 163 205 4 0 44 -21 87 -47z m1493 -598 l0 -145 -45
0 c-44 0 -44 0 -55 43 -6 23 -22 78 -35 122 -13 43 -23 80 -22 80 23 9 135 43
145 44 9 1 12 -34 12 -144z m-1450 -1612 c233 -74 520 -62 750 31 l57 23 7
-135 c3 -74 6 -190 6 -257 0 -111 -2 -125 -22 -151 -81 -104 -462 -559 -468
-559 -4 0 -114 128 -244 285 l-235 285 -1 267 0 268 53 -21 c28 -12 72 -28 97
-36z"/>
<path d="M1948 3570 c-24 -25 -29 -36 -23 -58 10 -44 33 -57 165 -101 137 -45
165 -49 198 -25 29 20 31 83 3 108 -17 16 -271 106 -299 106 -7 0 -27 -14 -44
-30z"/>
<path d="M2976 3554 c-71 -24 -137 -51 -147 -60 -28 -25 -26 -88 3 -108 33
-24 61 -20 198 25 132 44 155 57 165 101 6 22 1 33 -23 58 -17 16 -39 30 -49
29 -10 0 -76 -20 -147 -45z"/>
<path d="M2028 3330 c-29 -29 -30 -34 -26 -95 5 -77 25 -105 75 -105 56 0 73
27 73 114 0 69 -2 76 -26 95 -36 29 -60 26 -96 -9z"/>
<path d="M2996 3339 c-24 -19 -26 -26 -26 -95 0 -87 17 -114 73 -114 50 0 70
28 75 105 4 61 3 66 -26 95 -36 35 -60 38 -96 9z"/>
<path d="M2370 2707 c-38 -19 -54 -60 -38 -94 23 -49 47 -54 240 -51 168 3
179 4 199 25 14 13 22 34 22 53 0 19 -8 40 -22 53 -20 21 -31 22 -199 25 -130
2 -184 -1 -202 -11z"/>
</g>
</svg>
