<?xml version="1.0" standalone="no"?>
<!DOCTYPE svg PUBLIC "-//W3C//DTD SVG 20010904//EN"
 "http://www.w3.org/TR/2001/REC-SVG-20010904/DTD/svg10.dtd">
<svg version="1.0" xmlns="http://www.w3.org/2000/svg"
 width="512.000000pt" height="512.000000pt" viewBox="0 0 512.000000 512.000000"
 preserveAspectRatio="xMidYMid meet">

<g transform="translate(0.000000,512.000000) scale(0.100000,-0.100000)"
fill="#000000" stroke="none">
<path d="M2358 5106 c-29 -21 -38 -63 -38 -167 0 -180 48 -333 140 -443 22
-27 135 -129 250 -228 116 -99 210 -181 210 -183 0 -10 -132 -86 -143 -82 -34
13 -401 333 -446 389 -101 125 -154 261 -171 437 -6 62 -8 116 -5 121 3 4 0
21 -5 36 -28 73 -119 72 -139 -2 -7 -26 -13 -29 -80 -40 -39 -7 -79 -15 -87
-18 -9 -3 -27 3 -41 14 -48 38 -95 21 -116 -42 -11 -30 -29 -47 -88 -86 -180
-117 -314 -306 -370 -517 -14 -56 -22 -125 -26 -230 -6 -174 4 -240 47 -309
30 -46 30 -48 30 -192 l0 -145 -64 -62 c-54 -52 -67 -71 -81 -121 -21 -72 -15
-130 21 -203 43 -89 122 -139 238 -150 l64 -6 6 -49 c10 -73 62 -224 105 -303
23 -43 43 -99 51 -140 11 -59 47 -175 74 -235 5 -12 -17 -25 -93 -58 -195 -85
-306 -181 -394 -342 -56 -103 -78 -194 -84 -357 l-6 -141 -96 -27 c-126 -36
-220 -85 -291 -156 -65 -64 -102 -121 -139 -218 -25 -66 -26 -67 -29 -433 l-3
-368 25 -25 c30 -30 65 -32 97 -6 l24 19 5 364 5 363 32 67 c36 76 107 158
168 193 46 27 204 77 217 69 4 -3 8 -13 8 -22 0 -41 63 -147 123 -207 119
-119 205 -145 478 -145 l185 0 17 -70 c57 -239 248 -425 487 -476 334 -71 667
141 747 476 l17 70 185 0 c273 0 359 26 478 145 60 60 123 166 123 207 0 9 4
19 8 22 13 8 171 -43 217 -69 94 -55 175 -169 195 -276 6 -28 10 -198 10 -376
l0 -324 25 -24 c31 -32 69 -32 100 0 l25 24 0 339 c0 305 -2 347 -20 416 -27
105 -73 188 -146 261 -74 74 -166 124 -295 161 l-96 27 -6 141 c-10 241 -68
385 -216 531 -70 70 -143 116 -267 170 -49 22 -90 39 -91 40 -1 1 11 36 28 78
16 43 37 112 45 155 9 45 35 118 64 177 50 104 86 209 96 287 l6 45 63 6 c114
11 197 62 239 150 36 73 42 131 21 203 -14 50 -27 69 -81 121 l-64 62 0 145
c0 144 0 146 30 192 43 69 54 135 47 309 -4 103 -12 175 -27 230 -80 310 -322
552 -635 636 -68 18 -116 22 -316 26 l-235 5 -27 -23 c-39 -35 -44 -70 -14
-105 l25 -29 254 -6 c229 -5 259 -7 318 -28 254 -89 431 -285 489 -541 19 -84
-55 -150 -170 -150 l-65 0 -13 36 c-38 105 -165 172 -272 144 -24 -6 -72 -29
-106 -50 l-61 -38 -233 198 c-318 271 -344 313 -356 579 -5 116 -9 136 -26
152 -24 22 -64 24 -89 5z m-345 -364 c14 -136 92 -313 192 -440 42 -53 121
-129 239 -228 192 -161 199 -173 88 -160 -78 9 -109 25 -362 186 -123 79 -245
150 -270 157 -110 35 -241 -31 -281 -141 l-13 -36 -65 0 c-77 0 -139 31 -163
81 -14 27 -14 39 -2 93 19 82 82 207 141 281 42 52 157 155 173 155 3 0 14
-37 24 -82 30 -135 59 -170 124 -147 52 18 59 47 35 152 -39 167 -41 152 30
170 103 26 103 26 110 -41z m-130 -644 c12 -6 121 -74 241 -151 121 -77 245
-149 275 -160 71 -25 193 -33 263 -17 77 18 137 51 377 204 234 149 257 157
302 110 l24 -26 5 -306 5 -307 28 -47 c50 -87 123 -118 273 -118 85 0 95 -2
123 -26 86 -72 38 -215 -72 -214 -36 1 -45 5 -62 33 -21 33 -49 43 -91 33 -34
-9 -43 -34 -54 -147 -5 -55 -15 -119 -21 -141 l-10 -40 -16 23 c-43 65 -105
114 -172 137 -23 8 -234 12 -740 12 -779 1 -757 2 -835 -62 -21 -17 -51 -49
-67 -70 l-28 -39 -11 41 c-6 23 -15 89 -20 146 -4 60 -14 111 -21 120 -36 43
-98 35 -127 -16 -15 -26 -23 -30 -59 -30 -106 0 -157 136 -78 210 23 22 38 25
143 31 163 8 222 38 272 135 25 48 25 53 28 349 3 288 4 301 25 323 23 24 65
29 100 10z m-438 -164 c27 -8 73 -14 102 -14 l53 0 0 -80 0 -80 -60 0 c-112 0
-180 59 -180 155 0 41 2 46 18 40 9 -4 39 -14 67 -21z m2315 -17 c0 -96 -69
-157 -177 -157 l-63 0 0 79 0 78 78 5 c42 3 93 13 112 21 50 22 50 22 50 -26z
m-2217 -317 l57 0 0 -55 c0 -78 -27 -105 -105 -105 l-55 0 0 86 c0 85 0 86 23
80 12 -3 48 -6 80 -6z m2137 -75 l0 -85 -55 0 c-78 0 -105 27 -105 104 l0 55
68 4 c37 2 73 4 80 5 9 1 12 -21 12 -83z m-393 -751 c62 -46 73 -76 73 -203 0
-228 -70 -408 -219 -564 -256 -270 -652 -328 -981 -144 -86 48 -216 172 -274
260 -49 75 -92 181 -111 272 -19 95 -20 276 -1 313 18 34 54 68 86 81 16 6
269 9 712 8 679 -2 687 -2 715 -23z m-1368 -1089 c0 -166 -3 -180 -45 -203
-18 -9 -35 2 -146 91 -69 56 -133 113 -143 127 -12 14 -20 46 -23 80 -5 85 16
115 124 172 l88 47 73 -77 72 -77 0 -160z m1623 185 c24 -44 21 -134 -7 -170
-10 -14 -74 -71 -143 -127 -111 -89 -128 -100 -146 -91 -42 22 -45 37 -46 201
l0 159 73 78 72 79 89 -47 c68 -36 93 -55 108 -82z m-2132 -150 c0 -30 48
-116 83 -150 19 -19 202 -170 406 -335 203 -165 370 -303 371 -307 0 -4 -4
-18 -10 -32 l-10 -26 -323 0 c-336 0 -412 7 -480 42 -60 30 -123 101 -147 166
-45 118 -36 418 15 545 36 87 74 144 86 126 5 -8 9 -21 9 -29z m2390 -87 c37
-89 55 -233 47 -388 -7 -136 -30 -206 -91 -269 -95 -97 -143 -106 -563 -106
l-323 0 -10 26 c-6 14 -10 28 -10 32 1 4 168 142 371 307 204 165 386 316 406
335 40 40 66 86 83 150 l12 45 24 -30 c13 -17 37 -62 54 -102z m-1573 27 c245
-89 516 -77 744 33 l67 32 4 -115 c5 -123 20 -169 71 -220 l25 -25 -193 -157
-193 -158 -49 28 c-43 24 -58 27 -143 27 -85 0 -100 -3 -144 -27 l-48 -28
-107 87 c-58 48 -143 118 -189 156 l-82 68 24 32 c51 69 59 97 64 218 l4 117
33 -19 c18 -11 68 -33 112 -49z m421 -727 c73 -54 95 -155 49 -224 -24 -37
-97 -79 -137 -79 -40 0 -113 42 -137 79 -27 40 -31 117 -9 159 18 34 53 68 86
81 37 16 117 7 148 -16z m-375 -267 c31 -66 87 -125 153 -157 70 -35 198 -35
268 0 66 32 122 91 153 157 l24 54 84 0 83 0 -10 -42 c-16 -74 -77 -175 -139
-233 -200 -184 -497 -174 -682 24 -50 53 -102 147 -116 210 l-9 41 83 0 84 0
24 -54z"/>
<path d="M1974 3591 c-27 -12 -54 -49 -54 -74 0 -10 14 -32 30 -49 l30 -30
105 4 c92 3 107 6 126 25 29 29 29 77 0 106 -19 19 -34 22 -119 24 -53 2 -107
-1 -118 -6z"/>
<path d="M2930 3588 c-38 -20 -54 -61 -38 -95 20 -42 53 -53 156 -53 90 0 95
1 123 29 35 36 37 61 5 98 -23 27 -29 28 -123 31 -66 2 -106 -2 -123 -10z"/>
<path d="M2054 3350 c-37 -15 -54 -50 -54 -113 0 -51 4 -62 29 -88 36 -35 61
-37 98 -5 26 22 28 30 28 95 0 57 -4 74 -20 90 -26 24 -54 32 -81 21z"/>
<path d="M3015 3350 c-39 -15 -50 -40 -50 -112 0 -64 2 -72 28 -94 37 -32 62
-30 98 5 26 26 29 36 29 90 0 48 -4 65 -22 85 -27 29 -55 38 -83 26z"/>
<path d="M2290 2627 c-34 -17 -55 -57 -46 -90 8 -33 69 -79 145 -109 46 -18
75 -22 171 -22 96 0 125 4 171 22 82 32 136 75 144 112 13 59 -51 115 -100 88
-12 -7 -42 -24 -66 -37 -33 -18 -64 -26 -124 -29 -90 -5 -146 7 -198 42 -48
33 -68 38 -97 23z"/>
</g>
</svg>
