<?xml version="1.0" standalone="no"?>
<!DOCTYPE svg PUBLIC "-//W3C//DTD SVG 20010904//EN"
 "http://www.w3.org/TR/2001/REC-SVG-20010904/DTD/svg10.dtd">
<svg version="1.0" xmlns="http://www.w3.org/2000/svg"
 width="512.000000pt" height="512.000000pt" viewBox="0 0 512.000000 512.000000"
 preserveAspectRatio="xMidYMid meet">

<g transform="translate(0.000000,512.000000) scale(0.100000,-0.100000)"
fill="#000000" stroke="none">
<path d="M2365 5110 c-135 -21 -300 -87 -425 -169 -81 -53 -211 -182 -270
-267 -123 -178 -190 -397 -190 -622 0 -57 -3 -68 -29 -98 -42 -47 -76 -109
-102 -184 -21 -60 -23 -86 -27 -327 -4 -240 -5 -263 -21 -263 -23 0 -99 -50
-138 -91 -61 -64 -78 -120 -78 -249 0 -96 4 -123 21 -161 43 -92 122 -159 216
-183 l52 -13 31 -75 c40 -100 95 -199 155 -279 60 -80 190 -205 264 -255 l56
-37 0 -196 c0 -168 -3 -202 -19 -236 -23 -51 -75 -102 -126 -126 l-40 -18 -30
29 c-36 34 -93 60 -134 60 -24 0 -34 7 -46 30 -28 55 -80 66 -122 24 -20 -20
-24 -32 -20 -59 5 -33 5 -34 -55 -54 l-60 -21 -28 30 c-54 58 -130 29 -130
-49 0 -39 0 -39 -62 -60 -38 -13 -64 -17 -66 -11 -19 57 -90 71 -129 25 -19
-22 -23 -35 -19 -59 5 -27 1 -35 -29 -59 -51 -41 -78 -100 -80 -174 -2 -54 -6
-66 -37 -105 -50 -61 -97 -159 -114 -237 -9 -45 -14 -137 -14 -294 l0 -228 25
-24 c31 -32 69 -32 100 0 25 24 25 25 25 233 0 114 5 235 11 268 11 59 47 144
76 176 14 16 18 16 57 -4 80 -43 124 -34 476 91 175 62 333 124 355 139 46 32
94 113 95 157 0 28 6 34 62 59 78 36 160 117 194 190 33 72 44 145 44 294 0
67 2 122 5 122 3 0 43 -11 90 -25 48 -13 135 -30 196 -37 132 -15 281 -1 414
37 47 14 87 25 89 25 2 0 6 -73 8 -163 5 -134 9 -172 28 -220 41 -109 129
-194 245 -239 l55 -21 0 -57 c0 -164 76 -391 184 -552 l45 -67 -67 -20 c-362
-106 -874 -251 -888 -251 -10 0 -209 64 -443 141 -417 139 -426 141 -496 137
-92 -6 -169 -41 -234 -106 -56 -56 -83 -104 -101 -180 -21 -90 6 -152 66 -152
29 0 74 37 74 61 0 18 12 19 437 19 l437 0 126 -42 127 -41 149 41 149 42 454
0 453 0 -7 38 c-3 20 -15 56 -25 78 l-18 42 63 -44 c128 -89 313 -160 479
-183 43 -6 154 -11 247 -11 167 0 170 0 194 25 31 30 32 69 2 99 -22 22 -31
23 -228 29 -174 4 -218 9 -302 31 -339 88 -609 357 -699 696 l-22 85 -6 1305
-5 1305 -26 77 c-43 124 -93 204 -188 298 -93 92 -172 141 -296 181 -62 20
-96 23 -291 27 -209 4 -221 5 -217 22 9 34 72 98 121 122 42 21 59 23 172 21
260 -3 466 -87 636 -259 151 -154 235 -338 253 -557 6 -80 12 -102 29 -119 30
-30 81 -27 111 8 22 26 23 32 16 118 -20 258 -132 495 -318 673 -216 207 -475
303 -781 291 -93 -3 -120 -8 -168 -30 -111 -51 -181 -124 -219 -228 l-21 -58
-181 -4 c-153 -4 -191 -8 -241 -27 -33 -11 -62 -21 -66 -21 -11 0 9 153 31
225 90 298 324 523 634 608 71 19 104 22 280 21 167 0 217 -4 305 -23 415 -88
754 -315 981 -656 140 -209 219 -432 249 -700 14 -125 14 -2745 0 -2745 -23 0
-101 86 -127 139 l-28 56 -6 1290 c-5 1270 -5 1291 -26 1383 -31 134 -59 214
-115 330 -83 172 -197 318 -344 441 -272 227 -587 333 -953 318 -157 -6 -251
-30 -361 -94 -84 -49 -217 -182 -254 -253 -27 -52 -28 -58 -15 -85 8 -16 26
-34 40 -39 47 -16 72 -1 124 74 83 122 207 205 355 236 58 13 106 15 215 10
342 -15 604 -129 835 -365 201 -205 311 -441 340 -730 6 -65 10 -547 10 -1306
0 -1176 0 -1204 20 -1268 39 -125 147 -249 257 -295 l43 -17 0 -88 c0 -102 8
-99 -114 -44 -162 73 -280 204 -345 380 l-26 72 -5 1080 c-3 594 -9 1087 -13
1097 -5 9 -22 22 -39 29 -26 10 -35 10 -57 -2 -53 -30 -51 16 -48 -1129 3
-1055 3 -1066 24 -1140 36 -123 106 -251 187 -337 166 -178 360 -263 601 -263
88 0 98 2 120 25 32 31 32 69 0 100 -20 21 -34 25 -80 25 l-55 0 0 1514 c0
991 -4 1550 -11 1617 -28 281 -122 543 -277 774 -259 387 -662 645 -1132 725
-86 15 -419 21 -495 10z m308 -1110 c184 -27 339 -133 421 -289 67 -129 66
-120 66 -683 0 -279 -2 -508 -5 -508 -2 0 -125 70 -272 157 -344 201 -349 203
-443 203 -95 0 -88 3 -527 -253 l-352 -205 -15 42 c-9 22 -25 66 -36 97 -23
64 -40 75 -126 82 -94 7 -143 63 -151 172 -11 137 40 210 160 230 77 13 77 13
77 298 0 274 8 354 45 435 47 103 171 198 287 221 61 12 789 13 871 1z m493
-2727 c-8 -8 -64 26 -96 59 -63 63 -70 91 -70 311 0 108 4 197 9 197 5 0 42
24 82 54 l74 54 3 -336 c1 -184 0 -337 -2 -339z m-1601 -98 c32 -31 33 -76 3
-108 -17 -18 -104 -53 -326 -131 -166 -58 -314 -106 -328 -106 -38 0 -61 16
-73 50 -11 34 -3 68 24 90 24 21 613 229 648 230 17 0 38 -10 52 -25z"/>
<path d="M1821 3254 c-28 -36 -26 -60 8 -95 29 -28 32 -29 129 -29 85 0 103 3
126 21 33 26 36 79 6 109 -18 18 -33 20 -134 20 -112 0 -115 -1 -135 -26z"/>
<path d="M2792 3264 c-33 -23 -31 -86 4 -113 23 -18 41 -21 126 -21 97 0 100
1 129 29 34 35 36 59 8 95 -20 25 -23 26 -133 26 -85 0 -117 -4 -134 -16z"/>
<path d="M1910 3012 c-27 -27 -30 -37 -30 -90 0 -78 24 -112 79 -112 57 0 71
22 71 112 0 82 -10 100 -62 113 -22 6 -33 1 -58 -23z"/>
<path d="M2895 3030 c-39 -15 -50 -40 -50 -110 0 -83 18 -110 75 -110 57 0 75
27 75 112 0 64 -2 72 -28 94 -30 26 -40 28 -72 14z"/>
</g>
</svg>
