<?xml version="1.0" standalone="no"?>
<!DOCTYPE svg PUBLIC "-//W3C//DTD SVG 20010904//EN"
 "http://www.w3.org/TR/2001/REC-SVG-20010904/DTD/svg10.dtd">
<svg version="1.0" xmlns="http://www.w3.org/2000/svg"
 width="512.000000pt" height="512.000000pt" viewBox="0 0 512.000000 512.000000"
 preserveAspectRatio="xMidYMid meet">

<g transform="translate(0.000000,512.000000) scale(0.100000,-0.100000)"
fill="#000000" stroke="none">
<path d="M2443 5105 c-29 -8 -74 -25 -100 -38 -29 -15 -76 -27 -118 -31 -103
-10 -221 -35 -300 -63 -344 -124 -614 -395 -733 -735 -69 -194 -65 -123 -72
-1308 -7 -1196 0 -1079 -80 -1325 -43 -134 -69 -252 -71 -317 -2 -69 -11 -84
-76 -128 -80 -53 -140 -121 -187 -209 -60 -115 -66 -161 -66 -554 l0 -348 25
-24 c13 -14 36 -25 50 -25 28 0 75 40 75 65 0 12 15 15 85 15 l84 0 3 343 3
344 30 49 c33 53 72 84 140 110 44 16 45 16 65 -7 12 -13 33 -49 48 -79 l27
-55 5 -373 5 -374 24 -19 c13 -10 33 -19 46 -19 21 0 96 47 110 69 4 8 141 11
431 11 l424 0 11 -27 c27 -71 111 -71 139 1 14 38 14 982 -1 1062 -21 115 -60
176 -209 329 -131 134 -136 141 -126 168 5 15 14 27 18 27 5 0 32 21 60 47 60
56 95 125 104 204 l6 56 42 -10 c53 -14 339 -14 392 0 l42 10 6 -55 c4 -31 15
-75 26 -98 21 -48 102 -140 130 -149 10 -3 23 -18 28 -33 9 -25 1 -35 -128
-167 -149 -153 -188 -214 -209 -329 -15 -80 -15 -1024 -1 -1062 28 -72 112
-72 139 -1 l11 27 424 0 c290 0 427 -3 431 -11 14 -22 89 -69 110 -69 13 0 33
9 46 19 l24 19 5 374 5 373 26 55 c16 33 59 90 110 144 l84 89 44 -23 c63 -32
142 -115 177 -185 l29 -60 5 -370 c5 -386 7 -402 50 -425 31 -16 59 -12 85 15
l25 24 0 344 c0 200 -4 368 -11 403 -12 69 -74 203 -119 256 -28 34 -31 44
-35 125 -8 154 -58 297 -161 459 -49 76 -110 206 -131 279 -16 54 -18 150 -24
1000 -5 809 -8 951 -22 1020 -119 591 -550 1031 -1130 1156 -125 26 -335 34
-404 14z m405 -1044 c299 -75 540 -300 633 -591 47 -145 58 -395 27 -597 -11
-75 -17 -84 -37 -59 -6 8 -35 24 -64 37 -42 18 -75 23 -173 27 -71 3 -143 0
-175 -7 l-53 -12 -161 160 c-171 171 -201 191 -285 191 -84 0 -114 -20 -285
-191 l-161 -160 -53 12 c-32 7 -104 10 -175 7 -123 -4 -192 -23 -237 -64 -15
-13 -18 -11 -29 33 -7 26 -15 106 -19 177 -7 125 -8 129 -36 153 -22 19 -35
24 -59 19 -32 -6 -66 -38 -66 -62 0 -19 -63 -18 -100 1 -43 22 -60 53 -60 108
0 42 5 54 33 82 32 32 33 32 153 37 101 4 130 9 175 30 77 35 124 80 160 153
27 55 31 76 38 186 5 98 12 134 30 171 44 91 135 160 238 178 27 5 185 7 353
5 269 -3 315 -6 388 -24z m-105 -1149 l137 -138 -31 -57 c-17 -32 -34 -79 -37
-105 l-7 -47 -82 -3 -81 -3 -4 135 c-3 124 -5 137 -25 157 -13 14 -34 22 -53
22 -19 0 -40 -8 -53 -22 -20 -20 -22 -33 -25 -157 l-4 -135 -81 3 -82 3 -7 47
c-3 26 -20 73 -37 105 l-31 57 132 134 c73 74 142 138 153 143 47 21 77 2 218
-139z m-651 -217 c15 -11 36 -36 47 -56 20 -35 21 -51 21 -400 0 -358 -1 -365
-23 -403 -36 -64 -71 -76 -217 -76 -119 1 -123 2 -86 15 56 20 107 65 136 121
23 44 25 60 25 171 0 134 -8 154 -67 168 -22 6 -33 1 -58 -23 -30 -30 -30 -32
-30 -137 0 -99 -2 -107 -25 -130 -31 -32 -80 -33 -112 -3 -23 21 -23 22 -23
297 0 268 1 275 22 298 30 32 81 31 113 -2 14 -13 25 -33 25 -44 0 -58 53
-101 101 -82 38 14 52 37 51 87 -2 93 -69 179 -162 209 -43 14 -39 14 95 12
122 -2 143 -5 167 -22z m1189 8 c-55 -19 -124 -87 -142 -139 -11 -30 -14 -108
-14 -329 0 -290 0 -291 25 -339 28 -55 79 -101 136 -122 37 -13 31 -14 -96
-11 -121 2 -138 4 -166 24 -63 45 -64 53 -64 455 0 353 1 364 21 398 21 34 47
58 79 72 8 4 71 7 140 7 l125 -1 -44 -15z m131 -157 c33 -25 38 -65 38 -305 0
-246 -6 -293 -40 -311 -32 -17 -82 -11 -107 12 -23 21 -23 22 -23 293 0 260 1
273 21 299 16 20 29 26 57 26 20 0 45 -6 54 -14z m-612 -294 l0 -149 -64 -11
c-35 -7 -114 -12 -176 -12 -62 0 -141 5 -176 12 l-64 11 0 149 0 148 240 0
240 0 0 -148z m888 -1769 c1 -128 0 -233 -3 -233 -3 0 -103 87 -222 193 l-216
192 115 5 c122 5 141 12 152 56 6 24 8 25 89 22 l82 -3 3 -232z m-1818 153 c0
-5 -428 -386 -435 -386 -3 0 -5 88 -5 195 l0 195 220 0 c121 0 220 -2 220 -4z"/>
<path d="M1970 3518 c-40 -21 -56 -59 -41 -95 17 -43 48 -53 156 -53 84 0 97
2 121 23 35 30 37 79 5 110 -19 19 -34 22 -119 25 -65 2 -105 -2 -122 -10z"/>
<path d="M2935 3520 c-55 -22 -66 -88 -21 -127 24 -21 37 -23 121 -23 108 0
139 10 156 53 15 36 -2 74 -41 94 -28 14 -183 17 -215 3z"/>
<path d="M2044 3268 c-30 -14 -44 -50 -44 -113 0 -68 29 -108 79 -108 55 0 76
31 76 114 0 65 -2 73 -28 95 -30 26 -50 29 -83 12z"/>
<path d="M2993 3256 c-26 -22 -28 -30 -28 -95 0 -83 21 -114 76 -114 50 0 79
40 79 108 0 65 -14 99 -47 114 -35 16 -49 14 -80 -13z"/>
</g>
</svg>
