<?xml version="1.0" standalone="no"?>
<!DOCTYPE svg PUBLIC "-//W3C//DTD SVG 20010904//EN"
 "http://www.w3.org/TR/2001/REC-SVG-20010904/DTD/svg10.dtd">
<svg version="1.0" xmlns="http://www.w3.org/2000/svg"
 width="512.000000pt" height="512.000000pt" viewBox="0 0 512.000000 512.000000"
 preserveAspectRatio="xMidYMid meet">

<g transform="translate(0.000000,512.000000) scale(0.100000,-0.100000)"
fill="#000000" stroke="none">
<path d="M2390 5110 c-632 -84 -1127 -549 -1244 -1169 -25 -130 -99 -1373 -92
-1541 8 -203 52 -385 136 -568 l39 -82 -29 -63 c-30 -63 -70 -202 -70 -242 0
-19 -15 -28 -95 -58 -164 -62 -270 -151 -334 -281 -58 -118 -61 -148 -61 -624
l0 -433 25 -24 c31 -32 69 -32 100 0 l25 24 0 415 c0 265 4 434 11 468 30 143
127 252 269 305 l56 21 17 -78 c21 -92 93 -241 159 -326 195 -254 547 -444
938 -509 133 -22 392 -30 525 -16 398 43 740 194 973 431 125 127 217 289 244
431 l12 67 56 -19 c113 -39 207 -129 253 -241 21 -51 22 -71 27 -506 l5 -454
24 -19 c32 -26 67 -24 96 6 l25 24 0 433 c0 476 -3 506 -61 624 -62 126 -170
219 -321 275 -46 17 -88 38 -94 45 -6 8 -14 37 -18 64 -4 28 -20 89 -37 136
l-30 86 35 132 c106 389 116 633 66 1499 -22 389 -35 543 -51 620 -58 288
-185 524 -394 732 -206 207 -444 336 -723 395 -110 23 -357 34 -462 20z m428
-170 c454 -92 822 -422 967 -866 44 -133 54 -230 86 -779 48 -823 36 -1068
-72 -1442 -112 -389 -344 -721 -644 -922 -175 -117 -333 -187 -537 -236 -219
-53 -523 -70 -763 -42 -98 12 -102 13 -188 70 -192 128 -324 300 -372 482 -27
105 -14 315 24 382 4 8 25 -12 59 -57 164 -215 442 -408 711 -494 170 -54 273
-70 461 -70 145 1 177 4 261 26 337 91 604 331 720 648 56 154 60 190 66 528
7 406 -10 649 -63 911 -152 752 -512 1363 -863 1465 -167 49 -325 -8 -497
-179 -327 -324 -590 -1002 -644 -1660 -18 -212 -8 -849 14 -935 22 -89 72
-213 113 -284 l34 -58 -48 41 c-105 92 -234 262 -301 396 -74 150 -127 348
-138 520 -7 125 69 1405 92 1527 32 175 112 366 211 507 64 91 193 222 285
292 295 220 665 303 1026 229z m-561 -1192 c118 -93 214 -161 232 -164 54 -11
98 55 72 105 -8 15 2 28 60 75 39 31 74 56 78 54 4 -2 91 -68 195 -148 l187
-145 -74 -5 c-89 -6 -117 -25 -117 -77 0 -62 24 -73 154 -73 l115 0 23 30 23
30 56 -45 56 -44 31 -129 c46 -189 101 -536 87 -550 -2 -2 -165 98 -362 224
-197 125 -379 236 -406 246 -53 20 -128 23 -191 7 -27 -7 -186 -101 -417 -249
-206 -131 -376 -233 -377 -228 -6 14 17 200 38 323 52 288 139 566 258 817 34
74 59 115 66 111 6 -4 102 -78 213 -165z m359 -759 c25 -9 726 -450 748 -469
12 -11 -68 -113 -146 -185 -114 -107 -247 -182 -404 -227 -69 -20 -102 -23
-249 -23 -148 0 -181 3 -250 23 -212 61 -412 203 -534 379 l-22 33 53 33 c489
313 649 414 678 429 39 20 85 23 126 7z m-812 -762 c231 -220 555 -332 863
-299 266 28 497 137 686 323 l87 87 0 -219 c0 -226 -10 -314 -48 -418 -16 -43
-23 -49 -107 -93 -102 -53 -290 -118 -410 -142 -183 -37 -428 -37 -618 -2
-198 37 -498 161 -524 217 -14 30 -37 116 -48 178 l-7 43 78 -53 c159 -107
352 -186 549 -225 134 -27 396 -25 532 4 204 44 420 134 437 184 13 38 -9 84
-46 97 -27 10 -42 6 -117 -28 -206 -95 -365 -126 -600 -118 -123 4 -177 10
-253 30 -196 51 -358 132 -502 248 l-81 65 -3 134 -3 134 37 -44 c21 -25 65
-71 98 -103z m2041 -812 c14 -130 -30 -299 -110 -420 -225 -338 -745 -550
-1274 -520 -130 8 -141 18 -31 29 97 10 280 53 394 92 401 138 738 420 943
788 32 57 61 102 65 100 3 -2 10 -34 13 -69z m-1588 -105 c295 -51 619 -26
876 67 38 13 71 23 73 20 5 -5 -83 -81 -152 -131 -74 -52 -189 -103 -291 -128
-120 -29 -304 -29 -418 1 -147 39 -319 136 -414 235 l-34 35 122 -40 c66 -22
174 -48 238 -59z"/>
<path d="M1956 3498 c-36 -33 -39 -75 -6 -108 17 -17 33 -20 126 -20 58 0 114
5 125 11 48 25 44 105 -7 128 -14 6 -67 11 -119 11 -83 0 -97 -3 -119 -22z"/>
<path d="M2036 3259 c-24 -19 -26 -26 -26 -95 0 -84 18 -114 69 -114 52 0 74
29 79 103 4 63 3 68 -26 97 -36 35 -60 38 -96 9z"/>
<path d="M2996 3259 c-24 -19 -26 -26 -26 -95 0 -87 17 -114 74 -114 50 0 76
37 76 106 0 64 -14 98 -47 113 -34 16 -47 14 -77 -10z"/>
</g>
</svg>
