<?xml version="1.0" standalone="no"?>
<!DOCTYPE svg PUBLIC "-//W3C//DTD SVG 20010904//EN"
 "http://www.w3.org/TR/2001/REC-SVG-20010904/DTD/svg10.dtd">
<svg version="1.0" xmlns="http://www.w3.org/2000/svg"
 width="512.000000pt" height="512.000000pt" viewBox="0 0 512.000000 512.000000"
 preserveAspectRatio="xMidYMid meet">

<g transform="translate(0.000000,512.000000) scale(0.100000,-0.100000)"
fill="#000000" stroke="none">
<path d="M2140 5113 c-59 -10 -153 -47 -208 -83 -126 -81 -263 -233 -357 -396
-28 -48 -54 -86 -58 -86 -4 0 -46 3 -93 7 -168 14 -375 -32 -519 -117 -85 -50
-220 -183 -262 -258 -125 -221 -102 -476 62 -682 110 -140 324 -255 528 -284
l47 -6 0 -62 c-1 -60 -2 -62 -40 -88 -181 -126 -141 -404 69 -476 19 -7 58
-12 87 -12 60 0 51 20 84 -179 20 -115 76 -371 100 -451 5 -19 10 -40 10 -46
0 -6 -110 -111 -245 -234 -175 -159 -250 -235 -265 -265 -38 -79 -19 -208 39
-259 11 -11 21 -22 21 -26 0 -4 -35 -17 -77 -29 -139 -40 -217 -85 -308 -175
-65 -64 -91 -99 -124 -166 -61 -126 -71 -186 -71 -458 l0 -233 25 -24 c30 -31
69 -32 99 -2 23 23 24 29 28 268 5 212 8 253 26 309 26 80 64 141 126 201 65
64 138 100 298 148 l138 41 40 -26 c22 -15 40 -28 40 -31 0 -2 -22 -47 -49
-101 -124 -247 -114 -326 72 -605 63 -95 126 -184 140 -199 31 -33 65 -36 101
-7 48 38 38 65 -95 266 -128 192 -153 249 -142 320 3 21 39 104 79 185 41 81
74 158 74 171 0 30 -26 54 -193 172 -76 53 -142 106 -147 116 -25 45 -12 76
58 142 119 114 356 327 362 327 4 0 14 -26 24 -57 35 -113 109 -290 182 -440
l74 -151 0 -502 c0 -428 2 -505 15 -530 29 -56 104 -48 133 13 l13 27 480 0
c448 0 480 -1 486 -17 27 -77 117 -84 142 -12 7 22 11 191 11 526 l0 495 74
151 c73 150 147 327 182 439 10 32 20 58 23 58 7 0 136 -116 309 -277 108
-102 122 -118 122 -148 0 -44 -14 -59 -165 -166 -157 -111 -185 -136 -185
-165 0 -13 34 -91 75 -175 68 -137 75 -157 75 -210 0 -33 -6 -74 -14 -93 -7
-18 -66 -111 -130 -207 -128 -192 -138 -220 -90 -258 29 -23 55 -26 84 -11 25
13 263 373 284 429 45 117 28 235 -54 388 -28 50 -50 96 -50 101 0 5 18 22 39
36 l39 28 138 -42 c202 -61 275 -104 353 -208 78 -104 84 -133 91 -430 l5
-264 28 -24 c36 -31 71 -31 102 1 l25 24 0 226 c0 265 -11 338 -72 464 -31 65
-57 101 -116 160 -91 92 -154 129 -287 172 -55 17 -102 33 -104 35 -3 3 7 17
22 32 62 64 75 172 32 258 -19 39 -75 96 -265 268 -132 121 -240 223 -240 228
0 5 13 62 29 126 38 148 66 281 86 402 27 166 18 150 84 150 152 0 287 152
267 299 -10 74 -52 147 -107 189 -49 36 -49 37 -49 93 l0 57 48 6 c202 29 404
136 521 276 206 247 198 571 -21 805 -125 134 -283 217 -480 251 -81 14 -236
15 -300 1 -6 -1 -28 29 -49 66 -128 230 -325 420 -496 478 -101 35 -236 34
-318 -3 -33 -14 -88 -38 -123 -52 l-62 -27 -88 39 c-147 67 -228 82 -332 65z
m255 -201 c87 -40 109 -46 165 -46 56 0 78 6 165 46 55 26 121 49 146 53 60 9
158 -16 227 -57 99 -60 225 -197 306 -332 38 -63 42 -76 25 -76 -5 0 -110 -40
-232 -89 -367 -146 -441 -165 -637 -165 -195 0 -277 21 -620 159 -113 46 -217
86 -232 90 -16 4 -28 10 -28 14 0 12 71 124 114 180 57 73 182 192 238 225 60
35 152 56 213 50 29 -3 91 -24 150 -52z m-877 -527 c92 -19 157 -42 405 -142
536 -217 763 -214 1317 17 264 110 378 140 528 140 129 0 216 -20 328 -75 122
-59 205 -140 260 -250 39 -78 39 -80 39 -194 0 -112 -1 -119 -34 -186 -49
-101 -150 -199 -261 -253 -86 -42 -182 -72 -232 -72 l-27 0 -3 193 -3 194 -30
49 c-19 30 -49 60 -79 79 l-49 30 -850 3 c-916 3 -885 4 -902 -48 -6 -18 -15
-20 -86 -20 -75 0 -80 1 -89 24 -15 41 -41 48 -179 44 -122 -3 -130 -4 -177
-33 -30 -19 -60 -49 -79 -79 l-30 -49 -3 -194 -4 -193 -27 0 c-93 0 -274 80
-365 162 -234 208 -220 536 29 725 75 57 168 102 260 124 88 22 250 24 343 4z
m1819 -919 c28 -24 28 -24 33 -183 6 -173 12 -193 72 -249 54 -52 83 -61 206
-66 128 -5 153 -16 186 -83 17 -35 18 -42 5 -79 -9 -25 -27 -49 -48 -63 -32
-22 -43 -23 -210 -23 -151 0 -375 18 -446 36 -18 4 -20 13 -20 79 0 63 -3 78
-22 96 -28 28 -77 29 -104 2 -13 -13 -22 -39 -26 -77 -6 -57 -6 -58 -34 -52
-16 3 -70 22 -121 41 -177 69 -198 75 -248 75 -50 0 -70 -6 -250 -75 -52 -20
-109 -39 -127 -42 l-33 -6 0 60 c0 47 -4 64 -20 78 -31 28 -79 24 -108 -10
-21 -25 -24 -36 -20 -96 3 -63 2 -68 -18 -73 -70 -18 -302 -36 -456 -36 -175
0 -177 0 -207 26 -61 51 -58 147 6 190 26 17 51 22 142 26 98 5 116 9 163 35
67 38 112 107 122 189 12 105 16 107 256 129 343 32 862 102 1135 154 138 26
159 25 192 -3z m-624 -750 c196 -79 418 -127 665 -145 68 -5 126 -11 128 -14
3 -3 0 -39 -7 -81 l-12 -76 -36 0 c-67 0 -306 29 -413 50 -128 25 -274 67
-378 109 -91 37 -111 38 -184 6 -91 -40 -277 -93 -420 -119 -109 -20 -336 -46
-405 -46 -15 0 -20 14 -30 76 -7 42 -11 77 -9 79 2 2 59 9 128 15 312 28 456
62 770 186 45 18 69 13 203 -40z m2 -341 c201 -68 513 -125 677 -125 71 0 70
8 22 -183 -90 -361 -234 -724 -385 -973 -115 -192 -274 -377 -412 -483 l-57
-43 -54 41 c-140 108 -313 312 -422 497 -61 104 -165 317 -209 429 -84 212
-215 665 -202 699 5 12 21 16 59 16 187 0 529 68 743 148 44 17 87 28 95 25 8
-3 74 -24 145 -48z"/>
<path d="M1949 3171 c-34 -35 -36 -59 -8 -95 20 -25 23 -26 138 -26 134 0 151
8 151 73 0 27 -7 41 -26 56 -23 18 -41 21 -126 21 -97 0 -100 -1 -129 -29z"/>
<path d="M2914 3177 c-32 -28 -36 -78 -8 -108 15 -17 32 -19 134 -19 128 0
141 5 155 62 6 22 1 33 -23 58 -30 29 -32 30 -131 30 -90 0 -102 -2 -127 -23z"/>
</g>
</svg>
