<svg xmlns="http://www.w3.org/2000/svg" width="375" viewBox="0 0 375 375" height="375" version="1.0"><g fill="#F0F"><g><g><path d="M 14.84375 -36.609375 L 24.078125 -36.609375 L 27.28125 -25.3125 L 30.53125 -36.609375 L 39.75 -36.609375 L 33.71875 -19.125 L 36.359375 -11.5 L 44.234375 -36.609375 L 55.171875 -36.609375 L 40.84375 0 L 32.484375 0 L 27.28125 -13.09375 L 22.125 0 L 13.765625 0 L -0.5625 -36.609375 L 10.3125 -36.609375 L 18.25 -11.5 L 20.78125 -19.125 Z M 14.84375 -36.609375" transform="translate(19.345 204.654)"/></g></g></g><g fill="#F0F"><g><g><path d="M 29.234375 -8.765625 L 29.234375 0 L 3.140625 0 L 3.140625 -36.609375 L 28.765625 -36.609375 L 28.765625 -27.84375 L 13.203125 -27.84375 L 13.203125 -22.6875 L 26.5 -22.6875 L 26.5 -14.546875 L 13.203125 -14.546875 L 13.203125 -8.765625 Z M 29.234375 -8.765625" transform="translate(78.422 204.654)"/></g></g></g><g fill="#F0F"><g><g><path d="M 3.140625 0 L 3.140625 -36.609375 L 19.953125 -36.609375 C 21.742188 -36.609375 23.394531 -36.238281 24.90625 -35.5 C 26.414062 -34.757812 27.710938 -33.796875 28.796875 -32.609375 C 29.878906 -31.421875 30.726562 -30.0625 31.34375 -28.53125 C 31.96875 -27.007812 32.28125 -25.472656 32.28125 -23.921875 C 32.28125 -21.796875 31.816406 -19.8125 30.890625 -17.96875 C 29.960938 -16.132812 28.671875 -14.628906 27.015625 -13.453125 L 35.265625 0 L 23.921875 0 L 16.96875 -11.234375 L 13.203125 -11.234375 L 13.203125 0 Z M 13.203125 -20 L 19.546875 -20 C 20.160156 -20 20.734375 -20.34375 21.265625 -21.03125 C 21.796875 -21.71875 22.0625 -22.679688 22.0625 -23.921875 C 22.0625 -25.191406 21.753906 -26.160156 21.140625 -26.828125 C 20.523438 -27.503906 19.90625 -27.84375 19.28125 -27.84375 L 13.203125 -27.84375 Z M 13.203125 -20" transform="translate(113.684 204.654)"/></g></g></g><g fill="#F0F"><g><g><path d="M 29.234375 -8.765625 L 29.234375 0 L 3.140625 0 L 3.140625 -36.609375 L 28.765625 -36.609375 L 28.765625 -27.84375 L 13.203125 -27.84375 L 13.203125 -22.6875 L 26.5 -22.6875 L 26.5 -14.546875 L 13.203125 -14.546875 L 13.203125 -8.765625 Z M 29.234375 -8.765625" transform="translate(153.533 204.654)"/></g></g></g><g fill="#F0F"><g><g><path d="M 14.84375 -36.609375 L 24.078125 -36.609375 L 27.28125 -25.3125 L 30.53125 -36.609375 L 39.75 -36.609375 L 33.71875 -19.125 L 36.359375 -11.5 L 44.234375 -36.609375 L 55.171875 -36.609375 L 40.84375 0 L 32.484375 0 L 27.28125 -13.09375 L 22.125 0 L 13.765625 0 L -0.5625 -36.609375 L 10.3125 -36.609375 L 18.25 -11.5 L 20.78125 -19.125 Z M 14.84375 -36.609375" transform="translate(188.794 204.654)"/></g></g></g><g fill="#F0F"><g><g><path d="M 18.671875 0.3125 C 16.054688 0.3125 13.671875 -0.21875 11.515625 -1.28125 C 9.367188 -2.351562 7.53125 -3.753906 6 -5.484375 C 4.476562 -7.222656 3.296875 -9.207031 2.453125 -11.4375 C 1.609375 -13.675781 1.1875 -15.984375 1.1875 -18.359375 C 1.1875 -20.765625 1.625 -23.082031 2.5 -25.3125 C 3.375 -27.550781 4.601562 -29.519531 6.1875 -31.21875 C 7.769531 -32.925781 9.632812 -34.285156 11.78125 -35.296875 C 13.925781 -36.304688 16.289062 -36.8125 18.875 -36.8125 C 21.488281 -36.8125 23.867188 -36.28125 26.015625 -35.21875 C 28.160156 -34.15625 30 -32.742188 31.53125 -30.984375 C 33.0625 -29.234375 34.238281 -27.238281 35.0625 -25 C 35.882812 -22.769531 36.296875 -20.488281 36.296875 -18.15625 C 36.296875 -15.75 35.859375 -13.4375 34.984375 -11.21875 C 34.109375 -9 32.894531 -7.035156 31.34375 -5.328125 C 29.800781 -3.628906 27.945312 -2.265625 25.78125 -1.234375 C 23.613281 -0.203125 21.242188 0.3125 18.671875 0.3125 Z M 11.390625 -18.25 C 11.390625 -17.007812 11.535156 -15.8125 11.828125 -14.65625 C 12.117188 -13.507812 12.570312 -12.488281 13.1875 -11.59375 C 13.8125 -10.707031 14.585938 -9.988281 15.515625 -9.4375 C 16.441406 -8.882812 17.523438 -8.609375 18.765625 -8.609375 C 20.035156 -8.609375 21.132812 -8.890625 22.0625 -9.453125 C 23 -10.023438 23.757812 -10.765625 24.34375 -11.671875 C 24.925781 -12.585938 25.363281 -13.628906 25.65625 -14.796875 C 25.945312 -15.960938 26.09375 -17.148438 26.09375 -18.359375 C 26.09375 -19.597656 25.9375 -20.789062 25.625 -21.9375 C 25.3125 -23.09375 24.851562 -24.109375 24.25 -24.984375 C 23.65625 -25.859375 22.894531 -26.5625 21.96875 -27.09375 C 21.039062 -27.625 19.957031 -27.890625 18.71875 -27.890625 C 17.445312 -27.890625 16.351562 -27.613281 15.4375 -27.0625 C 14.53125 -26.519531 13.773438 -25.789062 13.171875 -24.875 C 12.566406 -23.96875 12.117188 -22.9375 11.828125 -21.78125 C 11.535156 -20.632812 11.390625 -19.457031 11.390625 -18.25 Z M 11.390625 -18.25" transform="translate(247.871 204.654)"/></g></g></g><g fill="#F0F"><g><g><path d="M 3.140625 0 L 3.140625 -36.609375 L 13.203125 -36.609375 L 13.203125 -8.765625 L 29.796875 -8.765625 L 29.796875 0 Z M 3.140625 0" transform="translate(289.834 204.654)"/></g></g></g><g fill="#F0F"><g><g><path d="M 3.140625 0 L 3.140625 -36.609375 L 28.25 -36.609375 L 28.25 -27.84375 L 13.203125 -27.84375 L 13.203125 -21.765625 L 25.46875 -21.765625 L 25.46875 -13.609375 L 13.203125 -13.609375 L 13.203125 0 Z M 3.140625 0" transform="translate(324.631 204.654)"/></g></g></g><g fill="#0FF"><g><g><path d="M 14.84375 -36.609375 L 24.078125 -36.609375 L 27.28125 -25.3125 L 30.53125 -36.609375 L 39.75 -36.609375 L 33.71875 -19.125 L 36.359375 -11.5 L 44.234375 -36.609375 L 55.171875 -36.609375 L 40.84375 0 L 32.484375 0 L 27.28125 -13.09375 L 22.125 0 L 13.765625 0 L -0.5625 -36.609375 L 10.3125 -36.609375 L 18.25 -11.5 L 20.78125 -19.125 Z M 14.84375 -36.609375" transform="translate(21.544 207.096)"/></g></g></g><g fill="#0FF"><g><g><path d="M 29.234375 -8.765625 L 29.234375 0 L 3.140625 0 L 3.140625 -36.609375 L 28.765625 -36.609375 L 28.765625 -27.84375 L 13.203125 -27.84375 L 13.203125 -22.6875 L 26.5 -22.6875 L 26.5 -14.546875 L 13.203125 -14.546875 L 13.203125 -8.765625 Z M 29.234375 -8.765625" transform="translate(80.622 207.096)"/></g></g></g><g fill="#0FF"><g><g><path d="M 3.140625 0 L 3.140625 -36.609375 L 19.953125 -36.609375 C 21.742188 -36.609375 23.394531 -36.238281 24.90625 -35.5 C 26.414062 -34.757812 27.710938 -33.796875 28.796875 -32.609375 C 29.878906 -31.421875 30.726562 -30.0625 31.34375 -28.53125 C 31.96875 -27.007812 32.28125 -25.472656 32.28125 -23.921875 C 32.28125 -21.796875 31.816406 -19.8125 30.890625 -17.96875 C 29.960938 -16.132812 28.671875 -14.628906 27.015625 -13.453125 L 35.265625 0 L 23.921875 0 L 16.96875 -11.234375 L 13.203125 -11.234375 L 13.203125 0 Z M 13.203125 -20 L 19.546875 -20 C 20.160156 -20 20.734375 -20.34375 21.265625 -21.03125 C 21.796875 -21.71875 22.0625 -22.679688 22.0625 -23.921875 C 22.0625 -25.191406 21.753906 -26.160156 21.140625 -26.828125 C 20.523438 -27.503906 19.90625 -27.84375 19.28125 -27.84375 L 13.203125 -27.84375 Z M 13.203125 -20" transform="translate(115.883 207.096)"/></g></g></g><g fill="#0FF"><g><g><path d="M 29.234375 -8.765625 L 29.234375 0 L 3.140625 0 L 3.140625 -36.609375 L 28.765625 -36.609375 L 28.765625 -27.84375 L 13.203125 -27.84375 L 13.203125 -22.6875 L 26.5 -22.6875 L 26.5 -14.546875 L 13.203125 -14.546875 L 13.203125 -8.765625 Z M 29.234375 -8.765625" transform="translate(155.732 207.096)"/></g></g></g><g fill="#0FF"><g><g><path d="M 14.84375 -36.609375 L 24.078125 -36.609375 L 27.28125 -25.3125 L 30.53125 -36.609375 L 39.75 -36.609375 L 33.71875 -19.125 L 36.359375 -11.5 L 44.234375 -36.609375 L 55.171875 -36.609375 L 40.84375 0 L 32.484375 0 L 27.28125 -13.09375 L 22.125 0 L 13.765625 0 L -0.5625 -36.609375 L 10.3125 -36.609375 L 18.25 -11.5 L 20.78125 -19.125 Z M 14.84375 -36.609375" transform="translate(190.993 207.096)"/></g></g></g><g fill="#0FF"><g><g><path d="M 18.671875 0.3125 C 16.054688 0.3125 13.671875 -0.21875 11.515625 -1.28125 C 9.367188 -2.351562 7.53125 -3.753906 6 -5.484375 C 4.476562 -7.222656 3.296875 -9.207031 2.453125 -11.4375 C 1.609375 -13.675781 1.1875 -15.984375 1.1875 -18.359375 C 1.1875 -20.765625 1.625 -23.082031 2.5 -25.3125 C 3.375 -27.550781 4.601562 -29.519531 6.1875 -31.21875 C 7.769531 -32.925781 9.632812 -34.285156 11.78125 -35.296875 C 13.925781 -36.304688 16.289062 -36.8125 18.875 -36.8125 C 21.488281 -36.8125 23.867188 -36.28125 26.015625 -35.21875 C 28.160156 -34.15625 30 -32.742188 31.53125 -30.984375 C 33.0625 -29.234375 34.238281 -27.238281 35.0625 -25 C 35.882812 -22.769531 36.296875 -20.488281 36.296875 -18.15625 C 36.296875 -15.75 35.859375 -13.4375 34.984375 -11.21875 C 34.109375 -9 32.894531 -7.035156 31.34375 -5.328125 C 29.800781 -3.628906 27.945312 -2.265625 25.78125 -1.234375 C 23.613281 -0.203125 21.242188 0.3125 18.671875 0.3125 Z M 11.390625 -18.25 C 11.390625 -17.007812 11.535156 -15.8125 11.828125 -14.65625 C 12.117188 -13.507812 12.570312 -12.488281 13.1875 -11.59375 C 13.8125 -10.707031 14.585938 -9.988281 15.515625 -9.4375 C 16.441406 -8.882812 17.523438 -8.609375 18.765625 -8.609375 C 20.035156 -8.609375 21.132812 -8.890625 22.0625 -9.453125 C 23 -10.023438 23.757812 -10.765625 24.34375 -11.671875 C 24.925781 -12.585938 25.363281 -13.628906 25.65625 -14.796875 C 25.945312 -15.960938 26.09375 -17.148438 26.09375 -18.359375 C 26.09375 -19.597656 25.9375 -20.789062 25.625 -21.9375 C 25.3125 -23.09375 24.851562 -24.109375 24.25 -24.984375 C 23.65625 -25.859375 22.894531 -26.5625 21.96875 -27.09375 C 21.039062 -27.625 19.957031 -27.890625 18.71875 -27.890625 C 17.445312 -27.890625 16.351562 -27.613281 15.4375 -27.0625 C 14.53125 -26.519531 13.773438 -25.789062 13.171875 -24.875 C 12.566406 -23.96875 12.117188 -22.9375 11.828125 -21.78125 C 11.535156 -20.632812 11.390625 -19.457031 11.390625 -18.25 Z M 11.390625 -18.25" transform="translate(250.07 207.096)"/></g></g></g><g fill="#0FF"><g><g><path d="M 3.140625 0 L 3.140625 -36.609375 L 13.203125 -36.609375 L 13.203125 -8.765625 L 29.796875 -8.765625 L 29.796875 0 Z M 3.140625 0" transform="translate(292.033 207.096)"/></g></g></g><g fill="#0FF"><g><g><path d="M 3.140625 0 L 3.140625 -36.609375 L 28.25 -36.609375 L 28.25 -27.84375 L 13.203125 -27.84375 L 13.203125 -21.765625 L 25.46875 -21.765625 L 25.46875 -13.609375 L 13.203125 -13.609375 L 13.203125 0 Z M 3.140625 0" transform="translate(326.83 207.096)"/></g></g></g><g fill="#FF1616"><g><g><path d="M 14.84375 -36.609375 L 24.078125 -36.609375 L 27.28125 -25.3125 L 30.53125 -36.609375 L 39.75 -36.609375 L 33.71875 -19.125 L 36.359375 -11.5 L 44.234375 -36.609375 L 55.171875 -36.609375 L 40.84375 0 L 32.484375 0 L 27.28125 -13.09375 L 22.125 0 L 13.765625 0 L -0.5625 -36.609375 L 10.3125 -36.609375 L 18.25 -11.5 L 20.78125 -19.125 Z M 14.84375 -36.609375" transform="translate(20.444 205.875)"/></g></g></g><g fill="#FF1616"><g><g><path d="M 29.234375 -8.765625 L 29.234375 0 L 3.140625 0 L 3.140625 -36.609375 L 28.765625 -36.609375 L 28.765625 -27.84375 L 13.203125 -27.84375 L 13.203125 -22.6875 L 26.5 -22.6875 L 26.5 -14.546875 L 13.203125 -14.546875 L 13.203125 -8.765625 Z M 29.234375 -8.765625" transform="translate(79.522 205.875)"/></g></g></g><g fill="#FF1616"><g><g><path d="M 3.140625 0 L 3.140625 -36.609375 L 19.953125 -36.609375 C 21.742188 -36.609375 23.394531 -36.238281 24.90625 -35.5 C 26.414062 -34.757812 27.710938 -33.796875 28.796875 -32.609375 C 29.878906 -31.421875 30.726562 -30.0625 31.34375 -28.53125 C 31.96875 -27.007812 32.28125 -25.472656 32.28125 -23.921875 C 32.28125 -21.796875 31.816406 -19.8125 30.890625 -17.96875 C 29.960938 -16.132812 28.671875 -14.628906 27.015625 -13.453125 L 35.265625 0 L 23.921875 0 L 16.96875 -11.234375 L 13.203125 -11.234375 L 13.203125 0 Z M 13.203125 -20 L 19.546875 -20 C 20.160156 -20 20.734375 -20.34375 21.265625 -21.03125 C 21.796875 -21.71875 22.0625 -22.679688 22.0625 -23.921875 C 22.0625 -25.191406 21.753906 -26.160156 21.140625 -26.828125 C 20.523438 -27.503906 19.90625 -27.84375 19.28125 -27.84375 L 13.203125 -27.84375 Z M 13.203125 -20" transform="translate(114.783 205.875)"/></g></g></g><g fill="#FF1616"><g><g><path d="M 29.234375 -8.765625 L 29.234375 0 L 3.140625 0 L 3.140625 -36.609375 L 28.765625 -36.609375 L 28.765625 -27.84375 L 13.203125 -27.84375 L 13.203125 -22.6875 L 26.5 -22.6875 L 26.5 -14.546875 L 13.203125 -14.546875 L 13.203125 -8.765625 Z M 29.234375 -8.765625" transform="translate(154.632 205.875)"/></g></g></g><g fill="#FF1616"><g><g><path d="M 14.84375 -36.609375 L 24.078125 -36.609375 L 27.28125 -25.3125 L 30.53125 -36.609375 L 39.75 -36.609375 L 33.71875 -19.125 L 36.359375 -11.5 L 44.234375 -36.609375 L 55.171875 -36.609375 L 40.84375 0 L 32.484375 0 L 27.28125 -13.09375 L 22.125 0 L 13.765625 0 L -0.5625 -36.609375 L 10.3125 -36.609375 L 18.25 -11.5 L 20.78125 -19.125 Z M 14.84375 -36.609375" transform="translate(189.893 205.875)"/></g></g></g><g fill="#FF1616"><g><g><path d="M 18.671875 0.3125 C 16.054688 0.3125 13.671875 -0.21875 11.515625 -1.28125 C 9.367188 -2.351562 7.53125 -3.753906 6 -5.484375 C 4.476562 -7.222656 3.296875 -9.207031 2.453125 -11.4375 C 1.609375 -13.675781 1.1875 -15.984375 1.1875 -18.359375 C 1.1875 -20.765625 1.625 -23.082031 2.5 -25.3125 C 3.375 -27.550781 4.601562 -29.519531 6.1875 -31.21875 C 7.769531 -32.925781 9.632812 -34.285156 11.78125 -35.296875 C 13.925781 -36.304688 16.289062 -36.8125 18.875 -36.8125 C 21.488281 -36.8125 23.867188 -36.28125 26.015625 -35.21875 C 28.160156 -34.15625 30 -32.742188 31.53125 -30.984375 C 33.0625 -29.234375 34.238281 -27.238281 35.0625 -25 C 35.882812 -22.769531 36.296875 -20.488281 36.296875 -18.15625 C 36.296875 -15.75 35.859375 -13.4375 34.984375 -11.21875 C 34.109375 -9 32.894531 -7.035156 31.34375 -5.328125 C 29.800781 -3.628906 27.945312 -2.265625 25.78125 -1.234375 C 23.613281 -0.203125 21.242188 0.3125 18.671875 0.3125 Z M 11.390625 -18.25 C 11.390625 -17.007812 11.535156 -15.8125 11.828125 -14.65625 C 12.117188 -13.507812 12.570312 -12.488281 13.1875 -11.59375 C 13.8125 -10.707031 14.585938 -9.988281 15.515625 -9.4375 C 16.441406 -8.882812 17.523438 -8.609375 18.765625 -8.609375 C 20.035156 -8.609375 21.132812 -8.890625 22.0625 -9.453125 C 23 -10.023438 23.757812 -10.765625 24.34375 -11.671875 C 24.925781 -12.585938 25.363281 -13.628906 25.65625 -14.796875 C 25.945312 -15.960938 26.09375 -17.148438 26.09375 -18.359375 C 26.09375 -19.597656 25.9375 -20.789062 25.625 -21.9375 C 25.3125 -23.09375 24.851562 -24.109375 24.25 -24.984375 C 23.65625 -25.859375 22.894531 -26.5625 21.96875 -27.09375 C 21.039062 -27.625 19.957031 -27.890625 18.71875 -27.890625 C 17.445312 -27.890625 16.351562 -27.613281 15.4375 -27.0625 C 14.53125 -26.519531 13.773438 -25.789062 13.171875 -24.875 C 12.566406 -23.96875 12.117188 -22.9375 11.828125 -21.78125 C 11.535156 -20.632812 11.390625 -19.457031 11.390625 -18.25 Z M 11.390625 -18.25" transform="translate(248.971 205.875)"/></g></g></g><g fill="#FF1616"><g><g><path d="M 3.140625 0 L 3.140625 -36.609375 L 13.203125 -36.609375 L 13.203125 -8.765625 L 29.796875 -8.765625 L 29.796875 0 Z M 3.140625 0" transform="translate(290.934 205.875)"/></g></g></g><g fill="#FF1616"><g><g><path d="M 3.140625 0 L 3.140625 -36.609375 L 28.25 -36.609375 L 28.25 -27.84375 L 13.203125 -27.84375 L 13.203125 -21.765625 L 25.46875 -21.765625 L 25.46875 -13.609375 L 13.203125 -13.609375 L 13.203125 0 Z M 3.140625 0" transform="translate(325.731 205.875)"/></g></g></g></svg>