<svg id="ewSVhKm5ERF1" xmlns="http://www.w3.org/2000/svg" xmlns:xlink="http://www.w3.org/1999/xlink" viewBox="0 0 300 340" shape-rendering="geometricPrecision" text-rendering="geometricPrecision" width="300" height="340">
  <g transform="matrix(.1 0 0-.1 0 340)">
    <path d="M1070,3304c91-95,98-100,177-127c82-28,83-29,93-70c6-23,13-48,15-54c3-8,23-13,54-13h50l6-47c4-27,8-52,9-58c2-5,35-21,74-34l70-24l5-55c3-30,8-56,11-59c2-2,34-11,70-20l66-15l35-62c24-43,55-79,100-115c36-29,65-56,65-61c0-4-7-23-15-43l-14-35l108-89l109-88l4-64l3-65l100-44c99-43,101-44,159-124c51-71,63-97,98-211c21-72,42-135,45-141c4-6,34-42,68-81c44-50,71-93,96-152c31-76,43-92,152-200l118-118-22,50c-11,28-36,84-54,126s-41,116-51,163c-16,78-23,92-76,158-54,69-59,79-84,185l-26,112-71,53c-40,28-76,55-80,59-5,4-25,72-45,152l-37,145-95,77c-52,43-98,85-101,94s-14,71-24,138l-18,121-31-3c-17-3-63-6-103-9l-72-5-5,32c-17,101-26,151-30,154-2,3-32,0-65-5l-61-9-61,111c-34,61-63,112-64,114-1,1-18-5-39-13l-36-15-39,61c-35,55-49,67-142,120-87,49-112,59-152,59s-74,13-185,67c-76,37-141,69-147,72-5,2,33-41,85-95Zm125-40c28-14,79-29,115-34c86-11,233-91,269-147c47-71,62-84,96-77c22,4,35,1,46-13c20-23,99-162,99-173c0-15,36-21,88-15l50,6l8-53c4-29,9-56,10-60c1-5,2-14,3-20c4-36,20-43,117-48c111-6,105,0,118-111c11-92,36-169,56-169c3,0,19-12,35-26c17-14,51-42,77-62c52-39,53-42,92-199c30-123,34-132,83-169c21-15,43-32,48-36c6-5,22-17,36-28c21-16,31-39,53-132c25-105,30-118,81-182c31-38,58-81,61-95s10-48,16-76c6-27,22-76,35-108c14-32,23-61,20-63-2-2-33,26-68,64-47,51-71,87-92,139-17,43-46,92-76,126-85,97-82,91-152,327-6,19-40,75-76,123-68,93-61,88-220,158-32,13-33,16-33,71v57l-105,87-105,87l6,47l6,47-69,62c-42,38-83,86-104,122-28,51-39,61-73,70-95,26-91,23-97,67-7,53-38,86-96,102-46,13-63,36-63,82c0,32-29,58-64,58-40,0-51,9-60,45-11,46-32,62-116,90-49,16-87,36-105,55-36,37-18,39,50,4Z" />
    <path d="M40,3191c0-5,7-15,16-22s77-89,151-181l135-167l51-10c29-5,61-11,72-13c15-3,25-21,44-86l24-82l79,6l79,7l69-48c48-33,69-53,66-64-6-20-56-232-56-236c0-1,45,21,100,50l100,53l57-102c49-88,66-109,135-166c72-59,85-75,138-176l60-111l61-18c53-16,79-34,180-122l117-104l14-92l14-92-38-60-37-60l101-23l101-23l113-107l113-107v-145l1-146l91-44c89-44,92-47,158-140c38-52,114-165,171-250s100-144,96-130c-3,14-20,81-38,150-28,113-37,135-95,224l-65,100l7,87l7,88-47,53c-45,51-46,55-41,102c5,48,4,50-49,109-55,60-67,88-96,214-11,48-15,52-96,103-46,29-86,56-88,60-3,5-12,43-21,87l-16,78-123,146-123,145l9,100c5,54,11,130,14,167l6,68-92-80-93-79-34,56c-72,119-90,139-166,184-66,38-86,57-160,153l-85,111-93,18c-88,17-95,20-162,77-39,33-123,89-188,126-109,62-121,72-159,130l-41,63-45-32-45-31-179,121c-99,67-179,117-179,113Zm210-165c25-16,47-33,48-38c2-4,8-8,14-8s26-11,44-25c40-31,41-31,86,0l37,25l18-25c10-13,29-40,43-59c14-20,28-36,32-36c9,0,129-70,149-87c8-7,21-13,28-13s50-30,95-67c44-36,86-70,91-74c11-8,38-15,117-29c26-5,55-13,65-19c10-5,52-55,93-110c43-58,87-105,103-112c15-6,27-15,27-19s12-11,26-14c26-7,114-90,114-108c0-13,89-128,99-128s110,78,129,100c11,12,12-9,7-125l-6-140l99-116c134-157,141-169,161-254c21-87,29-98,123-160c38-26,71-52,73-59c20-71,34-126,39-146c3-14,30-54,61-90c53-61,55-66,55-120c0-52,3-59,40-95l41-40-2-98c-1-86,1-103,20-128c11-15,21-31,21-34c0-7,53-88,62-95c11-9,29-62,37-112c5-27,7-48,6-48s-46,66-101,147c-118,176-147,207-240,255l-72,37-7,145-7,144-86,84c-147,143-152,146-233,163-40,9-74,17-76,19s8,24,23,50c27,48,27,55,8,176-11,75-6,68-189,228-50,44-87,68-130,82l-60,20-53,100c-29,54-67,113-85,129-83,76-123,110-128,111-4,0-22,28-39,63-47,89-79,137-95,143-8,3-46-11-86-31-39-20-73-34-75-32-3,3,4,39,16,81c30,111,28,119-32,166-83,66-103,73-178,66l-67-6-18,63c-22,74-37,94-79,102-99,20-101,22-182,123-102,127-103,128-84,117c8-5,35-22,60-39Z" />
    <path d="M22,2332c143-239,129-221,176-228c39-6,49-13,85-64c34-47,51-61,86-72c38-11,46-19,58-53c10-28,42-66,113-132c54-52,108-109,120-129c15-23,43-45,81-65l60-30-7-47-6-47l104-100c56-56,126-121,154-146c44-38,55-55,75-118c23-70,28-77,109-148l85-74l32-97c18-53,32-109,33-124c0-20,13-37,58-72c93-73,226-224,265-302c20-38,64-103,99-145c35-41,76-91,91-110c31-37,31-37-56,111-44,76-59,114-74,183-16,80-22,93-74,156-44,55-65,92-98,182-39,104-48,120-110,184l-67,70-34,142-34,142-57,50c-40,36-85,94-148,193-90,141-93,144-171,192-76,46-80,51-95,102l-16,54h-47-47l-36,79-37,79-61,18c-59,16-65,21-138,108-42,50-79,90-82,89-3,0-26-4-51-8-43-6-48-4-115,48-38,30-110,80-158,111l-89,57l24-39Zm207-149l83-64l53,6c41,5,55,3,62-8c4-8,37-49,72-90c50-59,72-77,98-82c62-11,78-25,118-103c39-76,41-77,82-80c40-3,48-10,58-52c8-32,38-62,100-98c66-39,81-53,128-125c29-45,65-103,80-128c15-26,59-79,97-119c39-39,70-77,71-83c1-14,0-12,36-150c27-106,29-109,95-180c59-64,71-83,102-170c32-87,86-186,108-195c13-6,51-73,54-96c1-11,5-37,9-56l6-35-22,40c-12,22-31,51-41,65-32,41-198,209-234,237-19,14-34,32-34,40s-14,61-31,116c-33,110-23,96-185,248-22,21-37,50-50,95-18,63-24,71-109,147-49,45-118,110-152,145-60,59-63,65-63,111c0,53-10,66-77,100-23,11-52,35-64,53-13,18-67,75-121,127-59,57-102,106-108,126-13,40-34,59-80,74-25,8-45,26-70,62-37,55-56,69-93,69-13,0-31,8-39,18-18,21-78,120-78,128c0,9,42-19,139-93Z" />
  </g>
</svg>